<svg width="14" height="14" viewBox="0 0 14 14" fill="none" xmlns="http://www.w3.org/2000/svg">
<path d="M2.64194 0H12.6708C13.2368 0 13.6804 0.44357 13.6804 1.00961V12.9904C13.6804 13.5565 13.237 14 12.6708 14H2.64194C2.07587 14 1.63232 13.5565 1.63232 12.9904V1.00961C1.63232 0.44357 2.07589 0 2.64194 0Z" fill="#FFFEFE"/>
<path d="M2.13714 6.49512H0.824645C0.54582 6.49512 0.319824 6.72111 0.319824 6.99994C0.319824 7.27876 0.54582 7.50476 0.824645 7.50476H2.13714C2.4158 7.50476 2.64194 7.27876 2.64196 6.99994C2.64194 6.72111 2.41597 6.49512 2.13714 6.49512Z" fill="#FFFEFE"/>
<path d="M2.13714 4.15625H0.824645C0.54582 4.15625 0.319824 4.38225 0.319824 4.66107C0.319824 4.93989 0.54582 5.16589 0.824645 5.16589H2.13714C2.4158 5.16589 2.64196 4.93989 2.64196 4.66107C2.64196 4.38225 2.41597 4.15625 2.13714 4.15625Z" fill="#FFFEFE"/>
<path d="M2.13714 1.81738H0.824645C0.54582 1.81738 0.319824 2.04338 0.319824 2.3222C0.319824 2.60103 0.54582 2.827 0.824645 2.827H2.13714C2.4158 2.827 2.64196 2.601 2.64196 2.3222C2.64194 2.04335 2.41597 1.81738 2.13714 1.81738Z" fill="#FFFEFE"/>
<path d="M2.13714 8.83398H0.824645C0.54582 8.83398 0.319824 9.05998 0.319824 9.3388C0.319824 9.61763 0.54582 9.84363 0.824645 9.84363H2.13714C2.4158 9.84363 2.64196 9.61763 2.64196 9.3388C2.64194 9.05998 2.41597 8.83398 2.13714 8.83398Z" fill="#FFFEFE"/>
<path d="M2.13714 11.1729H0.824645C0.54582 11.1729 0.319824 11.3988 0.319824 11.6777C0.319824 11.9565 0.54582 12.1825 0.824645 12.1825H2.13714C2.4158 12.1825 2.64196 11.9565 2.64196 11.6777C2.64194 11.3988 2.41597 11.1729 2.13714 11.1729Z" fill="#FFFEFE"/>
</svg>
