<svg width="35" height="35" viewBox="0 0 35 35" fill="none" xmlns="http://www.w3.org/2000/svg">
<path d="M17.5 35C27.165 35 35 27.165 35 17.5C35 7.83502 27.165 0 17.5 0C7.83502 0 0 7.83502 0 17.5C0 27.165 7.83502 35 17.5 35Z" fill="#A1B6BB"/>
<path d="M25.6707 8.39789H9.32812V28.0154H25.6707V8.39789Z" fill="#71C6DE"/>
<path d="M21.1566 27.0256H10.3213V8.39789H24.7766V23.1987L21.1566 27.0256Z" fill="white"/>
<path d="M21.1562 23.4049H24.7766L21.1562 27.0256V23.4049Z" fill="#B6F0FF"/>
<path d="M23.7651 26.0141L24.7766 23.4049L21.1562 27.0256L23.7651 26.0141Z" fill="#48AFCC"/>
<path d="M20.1288 7.39239C20.1288 5.9675 18.9738 4.8125 17.5489 4.8125C16.124 4.8125 14.9687 5.9675 14.9687 7.39239H13.1221V10.4167H21.8766V7.39239C21.8767 7.39239 20.1288 7.39239 20.1288 7.39239ZM14.462 9.3891C14.1907 9.3891 13.9706 9.16898 13.9706 8.89773C13.9706 8.62648 14.1907 8.40636 14.462 8.40636C14.7332 8.40636 14.9533 8.62648 14.9533 8.89773C14.9533 9.16898 14.7336 9.3891 14.462 9.3891ZM16.4475 7.39239C16.4475 6.78515 16.9413 6.29125 17.5486 6.29125C18.1559 6.29125 18.6497 6.78508 18.6497 7.39239H16.4475ZM20.5747 9.3891C20.3034 9.3891 20.0833 9.16898 20.0833 8.89773C20.0833 8.62648 20.3034 8.40636 20.5747 8.40636C20.8459 8.40636 21.066 8.62648 21.066 8.89773C21.066 9.16898 20.8463 9.3891 20.5747 9.3891Z" fill="#FC611F"/>
<path d="M11.9248 12.2325V12.6938H23.0758V12.2325H11.9248ZM11.9248 13.9923H23.0758V13.531H11.9248V13.9923ZM11.9248 15.2908H23.0758V14.8295H11.9248V15.2908ZM11.9248 16.5893H23.0758V16.128H11.9248V16.5893ZM11.9248 17.8878H23.0758V17.4265H11.9248V17.8878ZM11.9248 19.1863H23.0758V18.725H11.9248V19.1863ZM11.9248 20.4848H23.0758V20.0235H11.9248V20.4848ZM11.9248 21.7833H23.0758V21.322H11.9248V21.7833Z" fill="#B6F0FF"/>
<path d="M20.1292 7.39239C20.1292 5.9675 18.9742 4.8125 17.5493 4.8125L17.5 4.81742V6.29617L17.5494 6.29125C18.1566 6.29125 18.6505 6.78508 18.6505 7.39239H17.5V10.4167H21.8775V7.39239H20.1292ZM20.5751 9.3891C20.3038 9.3891 20.0837 9.16898 20.0837 8.89773C20.0837 8.62648 20.3038 8.40636 20.5751 8.40636C20.8463 8.40636 21.0664 8.62648 21.0664 8.89773C21.0664 9.16898 20.8467 9.3891 20.5751 9.3891Z" fill="#E34E10"/>
</svg>
