<svg width="14" height="14" viewBox="0 0 14 14" fill="none" xmlns="http://www.w3.org/2000/svg">
<g clip-path="url(#clip0)">
<path d="M7.14575 3.5H3.35409C2.79117 3.5 2.33325 3.04208 2.33325 2.47917V1.60417C2.33325 1.36267 2.52925 1.16667 2.77075 1.16667H3.70642C3.89775 0.494083 4.51667 0 5.24992 0C5.98317 0 6.60209 0.494083 6.79342 1.16667H7.72908C7.97058 1.16667 8.16658 1.36267 8.16658 1.60417V2.47917C8.16658 3.04208 7.70867 3.5 7.14575 3.5Z" fill="#FFFEFE"/>
<path d="M13 13C12.9055 13 12.819 12.9358 12.7765 12.8344L12.132 11.2876C12.0455 11.08 12 10.8484 12 10.6168V5.2C12 4.5382 12.4485 4 13 4C13.5515 4 14 4.5382 14 5.2V10.6168C14 10.8484 13.9545 11.08 13.868 11.2876L13.2235 12.8344C13.181 12.9358 13.0945 13 13 13ZM13.6445 11.1532H13.6495H13.6445Z" fill="#FFFEFE"/>
<path d="M8.89583 1.75H8.75V2.47917C8.75 3.36408 8.03075 4.08333 7.14583 4.08333H3.35417C2.46925 4.08333 1.75 3.36408 1.75 2.47917V1.75H1.60417C0.71925 1.75 0 2.46925 0 3.35417V12.3958C0 13.2807 0.71925 14 1.60417 14H8.89583C9.78075 14 10.5 13.2807 10.5 12.3958V3.35417C10.5 2.46925 9.78075 1.75 8.89583 1.75ZM8.3125 12.25H2.1875C1.946 12.25 1.75 12.054 1.75 11.8125C1.75 11.571 1.946 11.375 2.1875 11.375H8.3125C8.554 11.375 8.75 11.571 8.75 11.8125C8.75 12.054 8.554 12.25 8.3125 12.25ZM8.3125 10.5H2.1875C1.946 10.5 1.75 10.304 1.75 10.0625C1.75 9.821 1.946 9.625 2.1875 9.625H8.3125C8.554 9.625 8.75 9.821 8.75 10.0625C8.75 10.304 8.554 10.5 8.3125 10.5ZM8.3125 8.75H2.1875C1.946 8.75 1.75 8.554 1.75 8.3125C1.75 8.071 1.946 7.875 2.1875 7.875H8.3125C8.554 7.875 8.75 8.071 8.75 8.3125C8.75 8.554 8.554 8.75 8.3125 8.75ZM8.3125 7H2.1875C1.946 7 1.75 6.804 1.75 6.5625C1.75 6.321 1.946 6.125 2.1875 6.125H8.3125C8.554 6.125 8.75 6.321 8.75 6.5625C8.75 6.804 8.554 7 8.3125 7Z" fill="#FFFEFE"/>
<path d="M8.89583 1.75H8.75V2.47917C8.75 3.36408 8.03075 4.08333 7.14583 4.08333H3.35417C2.46925 4.08333 1.75 3.36408 1.75 2.47917V1.75H1.60417C0.71925 1.75 0 2.46925 0 3.35417V12.3958C0 13.2807 0.71925 14 1.60417 14H8.89583C9.78075 14 10.5 13.2807 10.5 12.3958V3.35417C10.5 2.46925 9.78075 1.75 8.89583 1.75ZM8.3125 12.25H2.1875C1.946 12.25 1.75 12.054 1.75 11.8125C1.75 11.571 1.946 11.375 2.1875 11.375H8.3125C8.554 11.375 8.75 11.571 8.75 11.8125C8.75 12.054 8.554 12.25 8.3125 12.25ZM8.3125 10.5H2.1875C1.946 10.5 1.75 10.304 1.75 10.0625C1.75 9.821 1.946 9.625 2.1875 9.625H8.3125C8.554 9.625 8.75 9.821 8.75 10.0625C8.75 10.304 8.554 10.5 8.3125 10.5ZM8.3125 8.75H2.1875C1.946 8.75 1.75 8.554 1.75 8.3125C1.75 8.071 1.946 7.875 2.1875 7.875H8.3125C8.554 7.875 8.75 8.071 8.75 8.3125C8.75 8.554 8.554 8.75 8.3125 8.75ZM8.3125 7H2.1875C1.946 7 1.75 6.804 1.75 6.5625C1.75 6.321 1.946 6.125 2.1875 6.125H8.3125C8.554 6.125 8.75 6.321 8.75 6.5625C8.75 6.804 8.554 7 8.3125 7Z" fill="#FFFEFE"/>
</g>
<defs>
<clipPath id="clip0">
<rect width="14" height="14" fill="white"/>
</clipPath>
</defs>
</svg>
