<svg width="17" height="17" viewBox="0 0 17 17" fill="none" xmlns="http://www.w3.org/2000/svg">
<path d="M17 0H0V17H17V0Z" fill="white" fill-opacity="0.01"/>
<path d="M1.0625 2.125H2.30208L2.83333 4.25L1.0625 2.125ZM2.83333 4.25L4.60417 11.3333H13.8125L15.5833 4.25H2.83333Z" stroke="white" stroke-width="1.5" stroke-linecap="round" stroke-linejoin="round"/>
<path d="M4.60449 14.875C5.1913 14.875 5.66699 14.3993 5.66699 13.8125C5.66699 13.2257 5.1913 12.75 4.60449 12.75C4.01769 12.75 3.54199 13.2257 3.54199 13.8125C3.54199 14.3993 4.01769 14.875 4.60449 14.875Z" stroke="white" stroke-width="1.5" stroke-linecap="round" stroke-linejoin="round"/>
<path d="M13.8125 14.875C14.3993 14.875 14.875 14.3993 14.875 13.8125C14.875 13.2257 14.3993 12.75 13.8125 12.75C13.2257 12.75 12.75 13.2257 12.75 13.8125C12.75 14.3993 13.2257 14.875 13.8125 14.875Z" stroke="white" stroke-width="1.5" stroke-linecap="round" stroke-linejoin="round"/>
</svg>
