<svg width="45" height="45" viewBox="0 0 45 45" fill="none" xmlns="http://www.w3.org/2000/svg">
<path fill-rule="evenodd" clip-rule="evenodd" d="M39.9227 13.4684H0.0859375V12.5557H39.9227V13.4684Z" fill="white"/>
<path fill-rule="evenodd" clip-rule="evenodd" d="M6.83906 6.64135V1.63653C6.83906 1.2368 6.5304 0.912761 6.14965 0.912761C5.7689 0.912761 5.46024 1.2368 5.46024 1.63653V6.64135C5.46024 7.04108 5.7689 7.36513 6.14965 7.36513C6.5304 7.36513 6.83906 7.04108 6.83906 6.64135ZM6.14965 0C5.28873 0 4.59082 0.732702 4.59082 1.63653V6.64135C4.59082 7.54519 5.28873 8.27789 6.14965 8.27789C7.01057 8.27789 7.70848 7.54518 7.70848 6.64135V1.63653C7.70848 0.732701 7.01057 0 6.14965 0Z" fill="white"/>
<path fill-rule="evenodd" clip-rule="evenodd" d="M16.1935 6.64135V1.63653C16.1935 1.2368 15.8849 0.912761 15.5041 0.912761C15.1234 0.912761 14.8147 1.2368 14.8147 1.63653V6.64135C14.8147 7.04108 15.1234 7.36513 15.5041 7.36513C15.8849 7.36513 16.1935 7.04108 16.1935 6.64135ZM15.5041 0C14.6432 0 13.9453 0.732702 13.9453 1.63653V6.64135C13.9453 7.54519 14.6432 8.27789 15.5041 8.27789C16.3651 8.27789 17.063 7.54518 17.063 6.64135V1.63653C17.063 0.732701 16.3651 0 15.5041 0Z" fill="white"/>
<path fill-rule="evenodd" clip-rule="evenodd" d="M25.548 6.64135V1.63653C25.548 1.2368 25.2394 0.912761 24.8586 0.912761C24.4779 0.912761 24.1692 1.2368 24.1692 1.63653V6.64135C24.1692 7.04108 24.4779 7.36513 24.8586 7.36513C25.2394 7.36513 25.548 7.04108 25.548 6.64135ZM24.8586 0C23.9977 0 23.2998 0.732702 23.2998 1.63653V6.64135C23.2998 7.54519 23.9977 8.27789 24.8586 8.27789C25.7196 8.27789 26.4175 7.54518 26.4175 6.64135V1.63653C26.4175 0.732701 25.7196 0 24.8586 0Z" fill="white"/>
<path fill-rule="evenodd" clip-rule="evenodd" d="M34.9006 6.64135V1.63653C34.9006 1.2368 34.5919 0.912761 34.2112 0.912761C33.8304 0.912761 33.5218 1.2368 33.5218 1.63653V6.64135C33.5218 7.04108 33.8304 7.36513 34.2112 7.36513C34.5919 7.36513 34.9006 7.04108 34.9006 6.64135ZM34.2112 0C33.3503 0 32.6523 0.732702 32.6523 1.63653V6.64135C32.6523 7.54519 33.3503 8.27789 34.2112 8.27789C35.0721 8.27789 35.77 7.54518 35.77 6.64135V1.63653C35.77 0.732701 35.0721 0 34.2112 0Z" fill="white"/>
<path fill-rule="evenodd" clip-rule="evenodd" d="M13.2506 19.4609C13.8535 19.4609 14.3306 18.955 14.3306 18.3459C14.3306 17.7368 13.8535 17.231 13.2506 17.231C12.6477 17.231 12.1706 17.7368 12.1706 18.3459C12.1706 18.955 12.6477 19.4609 13.2506 19.4609ZM13.2506 20.1455C14.2072 20.1455 14.9826 19.3398 14.9826 18.3459C14.9826 17.3521 14.2072 16.5464 13.2506 16.5464C12.294 16.5464 11.5186 17.3521 11.5186 18.3459C11.5186 19.3398 12.294 20.1455 13.2506 20.1455Z" fill="white"/>
<path fill-rule="evenodd" clip-rule="evenodd" d="M20.1793 19.4609C20.7822 19.4609 21.2593 18.955 21.2593 18.3459C21.2593 17.7368 20.7822 17.231 20.1793 17.231C19.5764 17.231 19.0993 17.7368 19.0993 18.3459C19.0993 18.955 19.5764 19.4609 20.1793 19.4609ZM20.1793 20.1455C21.1359 20.1455 21.9113 19.3398 21.9113 18.3459C21.9113 17.3521 21.1359 16.5464 20.1793 16.5464C19.2227 16.5464 18.4473 17.3521 18.4473 18.3459C18.4473 19.3398 19.2227 20.1455 20.1793 20.1455Z" fill="white"/>
<path fill-rule="evenodd" clip-rule="evenodd" d="M27.108 19.4609C27.7109 19.4609 28.188 18.955 28.188 18.3459C28.188 17.7368 27.7109 17.231 27.108 17.231C26.5051 17.231 26.028 17.7368 26.028 18.3459C26.028 18.955 26.5051 19.4609 27.108 19.4609ZM27.108 20.1455C28.0646 20.1455 28.84 19.3398 28.84 18.3459C28.84 17.3521 28.0646 16.5464 27.108 16.5464C26.1514 16.5464 25.376 17.3521 25.376 18.3459C25.376 19.3398 26.1514 20.1455 27.108 20.1455Z" fill="white"/>
<path fill-rule="evenodd" clip-rule="evenodd" d="M34.0357 19.4609C34.6386 19.4609 35.1157 18.955 35.1157 18.3459C35.1157 17.7368 34.6386 17.231 34.0357 17.231C33.4329 17.231 32.9558 17.7368 32.9558 18.3459C32.9558 18.955 33.4329 19.4609 34.0357 19.4609ZM34.0357 20.1455C34.9923 20.1455 35.7678 19.3398 35.7678 18.3459C35.7678 17.3521 34.9923 16.5464 34.0357 16.5464C33.0792 16.5464 32.3037 17.3521 32.3037 18.3459C32.3037 19.3398 33.0792 20.1455 34.0357 20.1455Z" fill="white"/>
<path fill-rule="evenodd" clip-rule="evenodd" d="M13.2516 24.8349C13.8544 24.8349 14.3315 24.329 14.3315 23.72C14.3315 23.1109 13.8544 22.605 13.2516 22.605C12.6487 22.605 12.1716 23.1109 12.1716 23.72C12.1716 24.329 12.6487 24.8349 13.2516 24.8349ZM13.2516 25.5195C14.2081 25.5195 14.9836 24.7138 14.9836 23.72C14.9836 22.7261 14.2081 21.9204 13.2516 21.9204C12.295 21.9204 11.5195 22.7261 11.5195 23.72C11.5195 24.7138 12.295 25.5195 13.2516 25.5195Z" fill="white"/>
<path fill-rule="evenodd" clip-rule="evenodd" d="M6.66856 24.8349C7.27142 24.8349 7.74852 24.329 7.74852 23.72C7.74852 23.1109 7.27142 22.605 6.66856 22.605C6.06569 22.605 5.58859 23.1109 5.58859 23.72C5.58859 24.329 6.06569 24.8349 6.66856 24.8349ZM6.66856 25.5195C7.62513 25.5195 8.40059 24.7138 8.40059 23.72C8.40059 22.7261 7.62513 21.9204 6.66856 21.9204C5.71198 21.9204 4.93652 22.7261 4.93652 23.72C4.93652 24.7138 5.71198 25.5195 6.66856 25.5195Z" fill="white"/>
<path fill-rule="evenodd" clip-rule="evenodd" d="M20.1803 24.8349C20.7831 24.8349 21.2602 24.329 21.2602 23.72C21.2602 23.1109 20.7831 22.605 20.1803 22.605C19.5774 22.605 19.1003 23.1109 19.1003 23.72C19.1003 24.329 19.5774 24.8349 20.1803 24.8349ZM20.1803 25.5195C21.1368 25.5195 21.9123 24.7138 21.9123 23.72C21.9123 22.7261 21.1368 21.9204 20.1803 21.9204C19.2237 21.9204 18.4482 22.7261 18.4482 23.72C18.4482 24.7138 19.2237 25.5195 20.1803 25.5195Z" fill="white"/>
<path fill-rule="evenodd" clip-rule="evenodd" d="M27.109 24.8349C27.7118 24.8349 28.189 24.329 28.189 23.72C28.189 23.1109 27.7118 22.605 27.109 22.605C26.5061 22.605 26.029 23.1109 26.029 23.72C26.029 24.329 26.5061 24.8349 27.109 24.8349ZM27.109 25.5195C28.0656 25.5195 28.841 24.7138 28.841 23.72C28.841 22.7261 28.0656 21.9204 27.109 21.9204C26.1524 21.9204 25.377 22.7261 25.377 23.72C25.377 24.7138 26.1524 25.5195 27.109 25.5195Z" fill="white"/>
<path fill-rule="evenodd" clip-rule="evenodd" d="M34.0367 24.8349C34.6396 24.8349 35.1167 24.329 35.1167 23.72C35.1167 23.1109 34.6396 22.605 34.0367 22.605C33.4339 22.605 32.9568 23.1109 32.9568 23.72C32.9568 24.329 33.4339 24.8349 34.0367 24.8349ZM34.0367 25.5195C34.9933 25.5195 35.7688 24.7138 35.7688 23.72C35.7688 22.7261 34.9933 21.9204 34.0367 21.9204C33.0801 21.9204 32.3047 22.7261 32.3047 23.72C32.3047 24.7138 33.0801 25.5195 34.0367 25.5195Z" fill="white"/>
<path fill-rule="evenodd" clip-rule="evenodd" d="M13.2516 30.2456C13.8544 30.2456 14.3315 29.7397 14.3315 29.1306C14.3315 28.5215 13.8544 28.0156 13.2516 28.0156C12.6487 28.0156 12.1716 28.5215 12.1716 29.1306C12.1716 29.7397 12.6487 30.2456 13.2516 30.2456ZM13.2516 30.9301C14.2081 30.9301 14.9836 30.1245 14.9836 29.1306C14.9836 28.1367 14.2081 27.3311 13.2516 27.3311C12.295 27.3311 11.5195 28.1367 11.5195 29.1306C11.5195 30.1245 12.295 30.9301 13.2516 30.9301Z" fill="white"/>
<path fill-rule="evenodd" clip-rule="evenodd" d="M6.66856 30.2456C7.27142 30.2456 7.74852 29.7397 7.74852 29.1306C7.74852 28.5215 7.27142 28.0156 6.66856 28.0156C6.06569 28.0156 5.58859 28.5215 5.58859 29.1306C5.58859 29.7397 6.06569 30.2456 6.66856 30.2456ZM6.66856 30.9301C7.62513 30.9301 8.40059 30.1245 8.40059 29.1306C8.40059 28.1367 7.62513 27.3311 6.66856 27.3311C5.71198 27.3311 4.93652 28.1367 4.93652 29.1306C4.93652 30.1245 5.71198 30.9301 6.66856 30.9301Z" fill="white"/>
<path fill-rule="evenodd" clip-rule="evenodd" d="M20.1803 30.2456C20.7831 30.2456 21.2602 29.7397 21.2602 29.1306C21.2602 28.5215 20.7831 28.0156 20.1803 28.0156C19.5774 28.0156 19.1003 28.5215 19.1003 29.1306C19.1003 29.7397 19.5774 30.2456 20.1803 30.2456ZM20.1803 30.9301C21.1368 30.9301 21.9123 30.1245 21.9123 29.1306C21.9123 28.1367 21.1368 27.3311 20.1803 27.3311C19.2237 27.3311 18.4482 28.1367 18.4482 29.1306C18.4482 30.1245 19.2237 30.9301 20.1803 30.9301Z" fill="white"/>
<path fill-rule="evenodd" clip-rule="evenodd" d="M27.109 30.2456C27.7118 30.2456 28.189 29.7397 28.189 29.1306C28.189 28.5215 27.7118 28.0156 27.109 28.0156C26.5061 28.0156 26.029 28.5215 26.029 29.1306C26.029 29.7397 26.5061 30.2456 27.109 30.2456ZM27.109 30.9301C28.0656 30.9301 28.841 30.1245 28.841 29.1306C28.841 28.1367 28.0656 27.3311 27.109 27.3311C26.1524 27.3311 25.377 28.1367 25.377 29.1306C25.377 30.1245 26.1524 30.9301 27.109 30.9301Z" fill="white"/>
<path fill-rule="evenodd" clip-rule="evenodd" d="M34.0367 30.2456C34.6396 30.2456 35.1167 29.7397 35.1167 29.1306C35.1167 28.5215 34.6396 28.0156 34.0367 28.0156C33.4339 28.0156 32.9568 28.5215 32.9568 29.1306C32.9568 29.7397 33.4339 30.2456 34.0367 30.2456ZM34.0367 30.9301C34.9933 30.9301 35.7688 30.1245 35.7688 29.1306C35.7688 28.1367 34.9933 27.3311 34.0367 27.3311C33.0801 27.3311 32.3047 28.1367 32.3047 29.1306C32.3047 30.1245 33.0801 30.9301 34.0367 30.9301Z" fill="white"/>
<path fill-rule="evenodd" clip-rule="evenodd" d="M13.2516 36.0185C13.8544 36.0185 14.3315 35.5126 14.3315 34.9035C14.3315 34.2945 13.8544 33.7886 13.2516 33.7886C12.6487 33.7886 12.1716 34.2945 12.1716 34.9035C12.1716 35.5126 12.6487 36.0185 13.2516 36.0185ZM13.2516 36.7031C14.2081 36.7031 14.9836 35.8974 14.9836 34.9035C14.9836 33.9097 14.2081 33.104 13.2516 33.104C12.295 33.104 11.5195 33.9097 11.5195 34.9035C11.5195 35.8974 12.295 36.7031 13.2516 36.7031Z" fill="white"/>
<path fill-rule="evenodd" clip-rule="evenodd" d="M6.66856 36.0185C7.27142 36.0185 7.74852 35.5126 7.74852 34.9035C7.74852 34.2945 7.27142 33.7886 6.66856 33.7886C6.06569 33.7886 5.58859 34.2945 5.58859 34.9035C5.58859 35.5126 6.06569 36.0185 6.66856 36.0185ZM6.66856 36.7031C7.62513 36.7031 8.40059 35.8974 8.40059 34.9035C8.40059 33.9097 7.62513 33.104 6.66856 33.104C5.71198 33.104 4.93652 33.9097 4.93652 34.9035C4.93652 35.8974 5.71198 36.7031 6.66856 36.7031Z" fill="white"/>
<path fill-rule="evenodd" clip-rule="evenodd" d="M20.1803 36.0185C20.7831 36.0185 21.2602 35.5126 21.2602 34.9035C21.2602 34.2945 20.7831 33.7886 20.1803 33.7886C19.5774 33.7886 19.1003 34.2945 19.1003 34.9035C19.1003 35.5126 19.5774 36.0185 20.1803 36.0185ZM20.1803 36.7031C21.1368 36.7031 21.9123 35.8974 21.9123 34.9035C21.9123 33.9097 21.1368 33.104 20.1803 33.104C19.2237 33.104 18.4482 33.9097 18.4482 34.9035C18.4482 35.8974 19.2237 36.7031 20.1803 36.7031Z" fill="white"/>
<path fill-rule="evenodd" clip-rule="evenodd" d="M27.109 36.0185C27.7118 36.0185 28.189 35.5126 28.189 34.9035C28.189 34.2945 27.7118 33.7886 27.109 33.7886C26.5061 33.7886 26.029 34.2945 26.029 34.9035C26.029 35.5126 26.5061 36.0185 27.109 36.0185ZM27.109 36.7031C28.0656 36.7031 28.841 35.8974 28.841 34.9035C28.841 33.9097 28.0656 33.104 27.109 33.104C26.1524 33.104 25.377 33.9097 25.377 34.9035C25.377 35.8974 26.1524 36.7031 27.109 36.7031Z" fill="white"/>
<path fill-rule="evenodd" clip-rule="evenodd" d="M38.1943 43.3315C41.1664 43.3315 43.5602 40.8308 43.5602 37.7659C43.5602 34.7011 41.1664 32.2004 38.1943 32.2004C35.2222 32.2004 32.8284 34.7011 32.8284 37.7659C32.8284 40.8308 35.2222 43.3315 38.1943 43.3315ZM38.1943 44.2443C41.638 44.2443 44.4296 41.3438 44.4296 37.7659C44.4296 34.1881 41.638 31.2876 38.1943 31.2876C34.7506 31.2876 31.959 34.1881 31.959 37.7659C31.959 41.3438 34.7506 44.2443 38.1943 44.2443Z" fill="white"/>
<path fill-rule="evenodd" clip-rule="evenodd" d="M25.722 3.59766H33.3426V4.78425H25.722V3.59766ZM36.7051 4.78425H35.0746V3.59766H36.7051C38.8658 3.59766 40.6175 5.43661 40.6175 7.70508V30.2315H39.4872V7.70508C39.4872 6.09195 38.2416 4.78425 36.7051 4.78425ZM32.3034 41.2812H4.00029C2.46375 41.2812 1.21814 39.9735 1.21814 38.3603V7.70508C1.21814 6.09195 2.46375 4.78425 4.00029 4.78425H5.2837V3.59766H4.00029C1.83953 3.59766 0.0878906 5.43661 0.0878906 7.70508V38.3603C0.0878906 40.6288 1.83953 42.4678 4.00029 42.4678H32.3034V41.2812ZM23.9899 3.59766H16.3689V4.78425H23.9899V3.59766ZM7.01574 3.59766H14.6368V4.78425H7.01574V3.59766Z" fill="white"/>
<g clip-path="url(#clip0_1608_2981)">
<path d="M37.3787 40.368C37.296 40.368 37.2134 40.3351 37.1504 40.2697L35.1719 38.214C35.0456 38.0828 35.0456 37.8707 35.1719 37.7395C35.2982 37.6083 35.5023 37.6083 35.6286 37.7395L37.3787 39.5578L41.1074 35.6838C41.2337 35.5526 41.4378 35.5526 41.5642 35.6838C41.6904 35.8151 41.6904 36.0272 41.5642 36.1584L37.6072 40.2697C37.5442 40.3351 37.4614 40.368 37.3787 40.368Z" fill="white"/>
</g>
<defs>
<clipPath id="clip0_1608_2981">
<rect width="6.58172" height="6.83826" fill="white" transform="translate(35.0771 34.5522)"/>
</clipPath>
</defs>
</svg>
