<svg width="24" height="24" viewBox="0 0 24 24" fill="none" xmlns="http://www.w3.org/2000/svg">
<path d="M24 0H0V24H24V0Z" fill="white" fill-opacity="0.01"/>
<path d="M3.72156 6.11538L2.67278 3H1.09961H3.19717L3.72156 6.11538ZM3.72156 6.11538L6.34351 16.5H19.9777L22.5996 6.11538H3.72156Z" stroke="#1C4779" stroke-width="2" stroke-linecap="round" stroke-linejoin="round"/>
<path d="M6.75 22.1001C7.7165 22.1001 8.5 21.3166 8.5 20.3501C8.5 19.3836 7.7165 18.6001 6.75 18.6001C5.7835 18.6001 5 19.3836 5 20.3501C5 21.3166 5.7835 22.1001 6.75 22.1001Z" stroke="#1C4779" stroke-width="1.5" stroke-linecap="round" stroke-linejoin="round"/>
<path d="M19.5508 22.1001C20.5173 22.1001 21.3008 21.3166 21.3008 20.3501C21.3008 19.3836 20.5173 18.6001 19.5508 18.6001C18.5843 18.6001 17.8008 19.3836 17.8008 20.3501C17.8008 21.3166 18.5843 22.1001 19.5508 22.1001Z" stroke="#1C4779" stroke-width="1.5" stroke-linecap="round" stroke-linejoin="round"/>
<path d="M11.5 11H15.5" stroke="#1C4779" stroke-width="1.8" stroke-linecap="round" stroke-linejoin="round"/>
<path d="M13.5 13V9" stroke="#1C4779" stroke-width="1.8" stroke-linecap="round" stroke-linejoin="round"/>
</svg>
