<svg width="46" height="43" viewBox="0 0 46 43" fill="none" xmlns="http://www.w3.org/2000/svg">
<rect x="0.5" y="0.5" width="45" height="42" rx="21" stroke="black" stroke-opacity="0.74"/>
<path d="M30.674 17.8235C31.5372 17.3088 32.2139 16.509 32.5986 15.5487C32.9833 14.5885 33.0544 13.5218 32.8008 12.5147C32.5472 11.5077 31.9832 10.6169 31.1966 9.98121C30.4101 9.34547 29.4451 9.00049 28.4521 9C27.4591 8.99951 26.4938 9.34355 25.7067 9.97851C24.9196 10.6135 24.3548 11.5037 24.1003 12.5105C23.8458 13.5173 23.9159 14.5841 24.2998 15.5447C24.6836 16.5053 25.3596 17.3057 26.2224 17.8213C24.756 18.2598 23.4392 19.1374 22.3791 20.3985C21.8701 20.1082 21.3322 19.8776 20.7751 19.7109C21.6383 19.1958 22.3148 18.3956 22.6992 17.4351C23.0836 16.4746 23.1543 15.4077 22.9002 14.4007C22.6462 13.3937 22.0817 12.5031 21.2947 11.8677C20.5077 11.2323 19.5424 10.8879 18.5493 10.888C17.5562 10.8882 16.591 11.2329 15.8042 11.8686C15.0174 12.5042 14.4531 13.395 14.1994 14.4021C13.9456 15.4092 14.0166 16.4761 14.4013 17.4365C14.7859 18.3968 15.4627 19.1968 16.326 19.7116C14.8379 20.1636 13.5049 21.0544 12.4855 22.2782C10.8827 24.1774 10 26.8385 10 29.7714C10 29.8555 10.0215 29.9382 10.0622 30.0107C10.1029 30.0833 10.1613 30.1431 10.2315 30.184C10.401 30.2828 14.4308 32.6034 18.55 32.6034C19.6373 32.598 20.7208 32.4701 21.782 32.2219C22.2945 33.3425 23.1442 34.2551 24.2 34.8191C25.2558 35.3831 26.4592 35.5672 27.6246 35.343C28.7901 35.1187 29.8528 34.4986 30.649 33.5783C31.4453 32.6579 31.9308 31.4884 32.0308 30.25C34.7817 29.5567 36.7014 28.3396 36.7848 28.286C36.8506 28.2439 36.9049 28.1847 36.9426 28.1141C36.9802 28.0436 37 27.9641 37 27.8833C37 24.9505 36.1173 22.2894 34.5145 20.3901C33.4951 19.1664 32.1621 18.2755 30.674 17.8235V17.8235ZM24.85 13.7229C24.85 12.9761 25.0611 12.246 25.4567 11.625C25.8523 11.0041 26.4145 10.5201 27.0723 10.2343C27.7302 9.94845 28.454 9.87367 29.1523 10.0194C29.8507 10.1651 30.4921 10.5247 30.9956 11.0528C31.4991 11.5809 31.8419 12.2537 31.9808 12.9862C32.1197 13.7187 32.0484 14.478 31.776 15.168C31.5035 15.858 31.0421 16.4477 30.4501 16.8626C29.858 17.2776 29.162 17.499 28.45 17.499C27.4955 17.4979 26.5805 17.0997 25.9056 16.3918C25.2307 15.6839 24.8511 14.7241 24.85 13.7229V13.7229ZM14.95 15.611C14.95 14.8641 15.1611 14.1341 15.5567 13.5131C15.9523 12.8921 16.5145 12.4081 17.1723 12.1223C17.8302 11.8365 18.554 11.7617 19.2523 11.9074C19.9507 12.0531 20.5921 12.4128 21.0956 12.9409C21.5991 13.469 21.9419 14.1418 22.0808 14.8743C22.2197 15.6068 22.1484 16.366 21.876 17.056C21.6035 17.746 21.1421 18.3358 20.5501 18.7507C19.958 19.1656 19.262 19.3871 18.55 19.3871C17.5955 19.3859 16.6805 18.9877 16.0056 18.2798C15.3307 17.5719 14.9511 16.6121 14.95 15.611V15.611ZM21.4581 31.3295C20.5022 31.5441 19.5276 31.6547 18.55 31.6594C15.2097 31.6594 11.8112 29.9727 10.903 29.4876C10.9572 26.8989 11.7536 24.5697 13.1594 22.9041C14.5597 21.2449 16.4744 20.3311 18.55 20.3311C21.2223 20.3311 23.5782 21.8396 24.9482 24.3957C23.6264 24.8566 22.5255 25.8352 21.8752 27.1272C21.2249 28.4192 21.0755 29.9247 21.4581 31.3295V31.3295ZM26.65 34.4915C25.76 34.4915 24.89 34.2147 24.1499 33.696C23.4099 33.1773 22.8331 32.4402 22.4925 31.5777C22.1519 30.7152 22.0628 29.7661 22.2365 28.8505C22.4101 27.9349 22.8387 27.0938 23.468 26.4337C24.0974 25.7736 24.8992 25.324 25.7721 25.1419C26.645 24.9598 27.5498 25.0533 28.3721 25.4105C29.1943 25.7678 29.8971 26.3728 30.3916 27.149C30.8861 27.9252 31.15 28.8378 31.15 29.7714C31.1486 31.0228 30.6741 32.2225 29.8305 33.1074C28.9869 33.9923 27.8431 34.4901 26.65 34.4915V34.4915ZM32.0292 29.2778C31.9649 28.5081 31.7512 27.7604 31.4012 27.0805C31.0512 26.4007 30.5723 25.8032 29.994 25.3246C29.4157 24.8461 28.7502 24.4967 28.0384 24.2979C27.3266 24.0991 26.5836 24.0552 25.855 24.1687C25.1743 22.8149 24.2499 21.7094 23.1565 20.9039C24.5479 19.3131 26.4092 18.443 28.45 18.443C30.5256 18.443 32.4403 19.3568 33.8406 21.016C35.2485 22.6842 36.0452 25.0175 36.0973 27.611C34.811 28.3382 33.4449 28.898 32.0292 29.2778V29.2778Z" fill="black" fill-opacity="0.74"/>
<path d="M28.9 29.2994H27.1V27.4114C27.1 27.2862 27.0525 27.1661 26.9681 27.0776C26.8838 26.9891 26.7693 26.9393 26.65 26.9393C26.5306 26.9393 26.4161 26.9891 26.3318 27.0776C26.2474 27.1661 26.2 27.2862 26.2 27.4114V29.2994H24.4C24.2806 29.2994 24.1661 29.3491 24.0818 29.4377C23.9974 29.5262 23.95 29.6462 23.95 29.7714C23.95 29.8966 23.9974 30.0167 24.0818 30.1052C24.1661 30.1937 24.2806 30.2434 24.4 30.2434H26.2V32.1315C26.2 32.2567 26.2474 32.3767 26.3318 32.4653C26.4161 32.5538 26.5306 32.6035 26.65 32.6035C26.7693 32.6035 26.8838 32.5538 26.9681 32.4653C27.0525 32.3767 27.1 32.2567 27.1 32.1315V30.2434H28.9C29.0193 30.2434 29.1338 30.1937 29.2181 30.1052C29.3025 30.0167 29.35 29.8966 29.35 29.7714C29.35 29.6462 29.3025 29.5262 29.2181 29.4377C29.1338 29.3491 29.0193 29.2994 28.9 29.2994Z" fill="black" fill-opacity="0.74"/>
</svg>
