<svg width="29" height="29" viewBox="0 0 29 29" fill="none" xmlns="http://www.w3.org/2000/svg">
<rect x="0.5" y="0.5" width="28" height="28" rx="14" stroke="black"/>
<path d="M14.7734 15L20.8398 8.9336C21.0534 8.72002 21.0534 8.37374 20.8398 8.16019C20.6262 7.94663 20.28 7.9466 20.0664 8.16019L14 14.2266L7.9336 8.16019C7.72002 7.9466 7.37374 7.9466 7.16019 8.16019C6.94663 8.37377 6.9466 8.72005 7.16019 8.9336L13.2266 15L7.16019 21.0664C6.9466 21.28 6.9466 21.6263 7.16019 21.8398C7.26696 21.9466 7.40694 22 7.54691 22C7.68688 22 7.82683 21.9466 7.93363 21.8398L14 15.7734L20.0664 21.8398C20.1732 21.9466 20.3131 22 20.4531 22C20.5931 22 20.733 21.9466 20.8398 21.8398C21.0534 21.6262 21.0534 21.28 20.8398 21.0664L14.7734 15Z" fill="black"/>
</svg>
