<svg width="17" height="17" viewBox="0 0 17 17" fill="none" xmlns="http://www.w3.org/2000/svg">
<path d="M17 0H0V17H17V0Z" fill="white" fill-opacity="0.01"/>
<path d="M13.458 1.41675H3.54134C3.15014 1.41675 2.83301 1.73388 2.83301 2.12508V14.8751C2.83301 15.2663 3.15014 15.5834 3.54134 15.5834H13.458C13.8492 15.5834 14.1663 15.2663 14.1663 14.8751V2.12508C14.1663 1.73388 13.8492 1.41675 13.458 1.41675Z" stroke="white" stroke-width="1.5" stroke-linecap="round" stroke-linejoin="round"/>
<path d="M10.625 8.14575L9.39799 6.91874L10.625 8.14575ZM9.39799 6.91874C9.71847 6.59829 9.91667 6.15558 9.91667 5.66659C9.91667 4.68859 9.12383 3.89575 8.14583 3.89575C7.16784 3.89575 6.375 4.68859 6.375 5.66659C6.375 6.64458 7.16784 7.43742 8.14583 7.43742C8.63483 7.43742 9.07754 7.23923 9.39799 6.91874Z" stroke="white" stroke-width="1.5" stroke-linecap="round" stroke-linejoin="round"/>
<path d="M6.02051 10.625H10.9788" stroke="white" stroke-width="1.5" stroke-linecap="round" stroke-linejoin="round"/>
<path d="M6.02051 12.75H8.49967" stroke="white" stroke-width="1.5" stroke-linecap="round" stroke-linejoin="round"/>
</svg>
