<svg width="39" height="39" viewBox="0 0 39 39" fill="none" xmlns="http://www.w3.org/2000/svg">
<rect x="0.198242" y="0.228271" width="38.4545" height="38.2251" rx="4" fill="#C91111"/>
<g clip-path="url(#clip0_809:26)">
<path d="M15.8186 9.45872C15.8186 8.78214 16.3337 8.28767 16.9937 8.28767H21.8244C22.4842 8.28767 22.9993 8.78214 22.9993 9.45872V10.7413H23.8697V9.45872C23.8697 8.29029 22.9643 7.39545 21.8244 7.39545H16.9937C15.8539 7.39545 14.9482 8.29029 14.9482 9.45872V10.7413H15.8186V9.45872Z" fill="white"/>
<path d="M14.2627 30.092H24.555C25.5473 30.092 26.3174 29.1971 26.3174 28.0844V14.3106H12.5V28.0844C12.5 29.1971 13.2701 30.092 14.2627 30.092ZM22.1831 16.4408C22.1831 16.1944 22.3779 15.9947 22.6183 15.9947C22.8586 15.9947 23.0535 16.1944 23.0535 16.4408V26.9803C23.0535 27.2266 22.8586 27.4264 22.6183 27.4264C22.3779 27.4264 22.1831 27.2266 22.1831 26.9803V16.4408ZM18.9735 16.4408C18.9735 16.1944 19.1684 15.9947 19.4087 15.9947C19.649 15.9947 19.8439 16.1944 19.8439 16.4408V26.9803C19.8439 27.2266 19.649 27.4264 19.4087 27.4264C19.1684 27.4264 18.9735 27.2266 18.9735 26.9803V16.4408ZM15.764 16.4408C15.764 16.1944 15.9588 15.9947 16.1992 15.9947C16.4395 15.9947 16.6343 16.1944 16.6343 16.4408V26.9803C16.6343 27.2266 16.4395 27.4264 16.1992 27.4264C15.9588 27.4264 15.764 27.2266 15.764 26.9803V16.4408Z" fill="white"/>
<path d="M12.0543 13.4188H26.7638C27.3647 13.4188 27.8518 12.9195 27.8518 12.3035C27.8518 11.6875 27.3647 11.1882 26.7638 11.1882H12.0543C11.4534 11.1882 10.9663 11.6875 10.9663 12.3035C10.9663 12.9195 11.4534 13.4188 12.0543 13.4188Z" fill="white"/>
</g>
<defs>
<clipPath id="clip0_809:26">
<rect width="22.1405" height="22.6961" fill="white" transform="translate(8.35498 7.39545)"/>
</clipPath>
</defs>
</svg>
