<svg width="23" height="23" viewBox="0 0 23 23" fill="none" xmlns="http://www.w3.org/2000/svg">
<g clip-path="url(#clip0_1516:2523)">
<path d="M7.87039 2.06327C7.87039 1.3867 8.38548 0.892226 9.0455 0.892226H13.8762C14.536 0.892226 15.0511 1.3867 15.0511 2.06327V3.34585H15.9215V2.06327C15.9215 0.89484 15.016 0 13.8762 0H9.0455C7.90566 0 7 0.89484 7 2.06327V3.34585H7.87039V2.06327Z" fill="black"/>
<path d="M5.90768 22.6965H16.2C17.1923 22.6965 17.9624 21.8017 17.9624 20.689V6.91516H4.14502V20.689C4.14502 21.8017 4.91511 22.6965 5.90768 22.6965V22.6965ZM13.8281 9.04532C13.8281 8.79895 14.023 8.5992 14.2633 8.5992C14.5036 8.5992 14.6985 8.79895 14.6985 9.04532V19.5848C14.6985 19.8312 14.5036 20.0309 14.2633 20.0309C14.023 20.0309 13.8281 19.8312 13.8281 19.5848V9.04532ZM10.6185 9.04532C10.6185 8.79895 10.8134 8.5992 11.0537 8.5992C11.2941 8.5992 11.4889 8.79895 11.4889 9.04532V19.5848C11.4889 19.8312 11.2941 20.0309 11.0537 20.0309C10.8134 20.0309 10.6185 19.8312 10.6185 19.5848V9.04532ZM7.40898 9.04532C7.40898 8.79895 7.60384 8.5992 7.84417 8.5992C8.0845 8.5992 8.27936 8.79895 8.27936 9.04532V19.5848C8.27936 19.8312 8.0845 20.0309 7.84417 20.0309C7.60384 20.0309 7.40898 19.8312 7.40898 19.5848V9.04532Z" fill="black"/>
<path d="M3.69931 6.02336H18.4088C19.0097 6.02336 19.4968 5.5241 19.4968 4.90807C19.4968 4.29205 19.0097 3.79279 18.4088 3.79279H3.69931C3.09837 3.79279 2.61133 4.29205 2.61133 4.90807C2.61133 5.5241 3.09837 6.02336 3.69931 6.02336Z" fill="black"/>
</g>
<defs>
<clipPath id="clip0_1516:2523">
<rect width="22.1405" height="22.6961" fill="white"/>
</clipPath>
</defs>
</svg>
