<svg width="39" height="38" viewBox="0 0 39 38" fill="none" xmlns="http://www.w3.org/2000/svg">
<rect x="0.5" y="0.5" width="38" height="37" rx="3.5" stroke="#198754"/>
<path d="M20.4738 18L20.5 13.5C21.9952 13.8134 23.4 14.7185 23.4 15.6631C23.4 16.2769 23.9814 16.7736 24.7 16.7736C25.4186 16.7736 26 16.2769 26 15.6631C26 13.5174 23.4377 11.7234 20.4738 11.3109L20.5 10C20.5 9.38618 20.2186 9 19.5 9C18.7814 9 18.5 9.38618 18.5 10V11.3109C15.5361 11.7234 13.6656 13.5174 13.6656 15.6631C13.6656 17.8087 15.5361 19.5875 18.5 20V24.4059C17.0048 24.0925 15.6 23.2707 15.6 22.3261C15.6 21.7123 15.0186 21.2156 14.3 21.2156C13.5814 21.2156 13 21.7123 13 22.3261C13 24.4718 15.5361 26.0875 18.5 26.5V28C18.5 28.6138 18.7814 29 19.5 29C20.2186 29 20.5 28.6138 20.5 28L20.4738 26.6783C23.4377 26.2658 25 24.4718 25 22.3261C25 20.1805 23.4377 18.4124 20.4738 18ZM16 15.6631C16 14.7185 17.0048 13.8134 18.5 13.5V15.6631V18C17.0048 17.6865 16 16.6076 16 15.6631ZM20.4738 24.4059V22.3261V20.1938C21.969 20.5072 22.5 21.3815 22.5 22.3261C22.5 23.2707 21.969 24.0924 20.4738 24.4059Z" fill="#198754"/>
</svg>
