<svg width="17" height="17" viewBox="0 0 17 17" fill="none" xmlns="http://www.w3.org/2000/svg">
<path d="M17 0H0V17H17V0Z" fill="white" fill-opacity="0.01"/>
<path d="M8.14616 14.875H6.72949H5.31283H3.18783C2.79662 14.875 2.47949 14.5579 2.47949 14.1667V2.83333C2.47949 2.44213 2.79662 2.125 3.18783 2.125H13.1045C13.4957 2.125 13.8128 2.44213 13.8128 2.83333V5.3125V6.90625" stroke="white" stroke-width="1.5" stroke-linecap="round" stroke-linejoin="round"/>
<path d="M12.9757 9.5625C13.8292 9.5625 14.5212 10.2285 14.5212 11.05C14.5212 12.1194 13.4909 13.0333 12.9757 13.5292C12.6323 13.8597 12.203 14.1903 11.6878 14.5208C11.1727 14.1903 10.7434 13.8597 10.3999 13.5292C9.8848 13.0333 8.85449 12.1194 8.85449 11.05C8.85449 10.2285 9.54643 9.5625 10.3999 9.5625C10.9375 9.5625 11.4109 9.82667 11.6878 10.2274C11.9647 9.82667 12.4382 9.5625 12.9757 9.5625Z" stroke="white" stroke-width="1.5" stroke-linejoin="round"/>
<path d="M5.66699 4.95825H11.3337" stroke="white" stroke-width="1.5" stroke-linecap="round"/>
<path d="M5.66699 7.08325H8.14616" stroke="white" stroke-width="1.5" stroke-linecap="round" stroke-linejoin="round"/>
</svg>
