<svg width="35" height="35" viewBox="0 0 35 35" fill="none" xmlns="http://www.w3.org/2000/svg">
<path d="M17.5 35C27.165 35 35 27.165 35 17.5C35 7.83502 27.165 0 17.5 0C7.83502 0 0 7.83502 0 17.5C0 27.165 7.83502 35 17.5 35Z" fill="#A1B6BB"/>
<path d="M17.4997 27.5397C23.0445 27.5397 27.5394 23.0448 27.5394 17.5C27.5394 11.9552 23.0445 7.46027 17.4997 7.46027C11.9549 7.46027 7.45996 11.9552 7.45996 17.5C7.45996 23.0448 11.9549 27.5397 17.4997 27.5397Z" fill="white"/>
<path d="M17.5 7.46027V27.5397C22.504 27.5397 26.5604 23.0447 26.5604 17.5C26.5604 11.9553 22.504 7.46027 17.5 7.46027Z" fill="#C7DADF"/>
<path d="M17.4999 8.43964C12.4959 8.43964 8.43945 12.4962 8.43945 17.5001C8.43945 22.504 12.4959 26.5605 17.4999 26.5605C22.5038 26.5605 26.5603 22.504 26.5603 17.5001C26.5603 12.4961 22.5038 8.43964 17.4999 8.43964ZM17.4999 25.2547C13.2173 25.2547 9.74525 21.783 9.74525 17.5001C9.74525 13.2175 13.2169 9.74544 17.4999 9.74544C21.7825 9.74544 25.2545 13.2171 25.2545 17.5001C25.2545 21.7826 21.7825 25.2547 17.4999 25.2547ZM19.1963 12.7348H15.8035V15.8036H12.735V19.1965H15.8035V22.2653H19.1963V19.1965H22.2651V15.8036H19.1963V12.7348Z" fill="#FC611F"/>
<path d="M19.1965 19.1965H22.2653V15.8037H19.1965V12.7349H17.5V22.265H19.1965V19.1965ZM17.5 8.43964V9.74551C21.7826 9.74551 25.2546 13.2171 25.2546 17.5001C25.2546 21.7827 21.783 25.2547 17.5 25.2547V26.5606C22.504 26.5606 26.5604 22.5041 26.5604 17.5002C26.5604 12.4963 22.504 8.43964 17.5 8.43964Z" fill="#E34E10"/>
</svg>
