<svg width="14" height="14" viewBox="0 0 14 14" fill="none" xmlns="http://www.w3.org/2000/svg">
<g clip-path="url(#clip0_1734_4297)">
<path d="M11.9441 2.05592C10.6183 0.730133 8.86246 0 7 0C5.13754 0 3.38168 0.730133 2.05592 2.05592C0.730133 3.38168 0 5.13753 0 7C0 8.86246 0.730133 10.6183 2.05592 11.9441C3.38168 13.2699 5.13754 14 7 14C8.86246 14 10.6183 13.2699 11.9441 11.9441C13.2699 10.6183 14 8.86246 14 7C14 5.13753 13.2699 3.38168 11.9441 2.05592Z" fill="#FFFEFE"/>
<path d="M9.1999 5.33148C9.1999 5.63812 9.46854 5.88672 9.7999 5.88672C10.1313 5.88672 10.3999 5.63812 10.3999 5.33148C10.3999 4.71657 10.0562 4.12535 9.45694 3.70944C9.04762 3.42534 8.54398 3.23556 7.9999 3.15483V2.55524C7.9999 2.2486 7.73126 2 7.3999 2C7.06854 2 6.7999 2.2486 6.7999 2.55524V3.15483C6.25578 3.23556 5.75214 3.42534 5.34286 3.70944C4.74358 4.12535 4.3999 4.71657 4.3999 5.33148C4.3999 5.94639 4.74358 6.53758 5.34286 6.95353C5.75218 7.23762 6.25582 7.42741 6.7999 7.50814V9.70722C6.1087 9.55091 5.5999 9.13581 5.5999 8.66293C5.5999 8.35629 5.33126 8.10769 4.9999 8.10769C4.66854 8.10769 4.3999 8.35629 4.3999 8.66293C4.3999 9.27784 4.74358 9.86902 5.34286 10.285C5.75218 10.5691 6.25582 10.7589 6.7999 10.8396V11.4448C6.7999 11.7514 7.06854 12 7.3999 12C7.73126 12 7.9999 11.7514 7.9999 11.4448V10.8396C8.54402 10.7589 9.04766 10.5691 9.45694 10.285C10.0562 9.86906 10.3999 9.27784 10.3999 8.66293C10.3999 8.04802 10.0562 7.4568 9.45694 7.04088C9.04762 6.75679 8.54398 6.567 7.9999 6.48627V4.28719C8.6911 4.44354 9.1999 4.8586 9.1999 5.33148ZM5.5999 5.33148C5.5999 4.8586 6.1087 4.4435 6.7999 4.28719V6.37574C6.1087 6.21946 5.5999 5.80436 5.5999 5.33148ZM9.1999 8.66293C9.1999 9.13581 8.6911 9.55091 7.9999 9.70722V7.61867C8.6911 7.77499 9.1999 8.19005 9.1999 8.66293Z" fill="#003C77"/>
</g>
<defs>
<clipPath id="clip0_1734_4297">
<rect width="14" height="14" fill="white"/>
</clipPath>
</defs>
</svg>
