<svg width="17" height="17" viewBox="0 0 17 17" fill="none" xmlns="http://www.w3.org/2000/svg">
<g clip-path="url(#clip0_1829_3008)">
<path d="M7.72727 6.18182H10.8182C11.0231 6.18182 11.2197 6.10041 11.3646 5.95549C11.5095 5.81058 11.5909 5.61403 11.5909 5.40909C11.5909 5.20415 11.5095 5.0076 11.3646 4.86269C11.2197 4.71778 11.0231 4.63636 10.8182 4.63636H9.27273V3.86364C9.27273 3.6587 9.19132 3.46215 9.0464 3.31724C8.90149 3.17232 8.70494 3.09091 8.5 3.09091C8.29506 3.09091 8.09852 3.17232 7.9536 3.31724C7.80869 3.46215 7.72727 3.6587 7.72727 3.86364V4.63636C7.11245 4.63636 6.52282 4.8806 6.08807 5.31534C5.65333 5.75009 5.40909 6.33973 5.40909 6.95455C5.40909 7.56937 5.65333 8.159 6.08807 8.59375C6.52282 9.02849 7.11245 9.27273 7.72727 9.27273H9.27273C9.47767 9.27273 9.67421 9.35414 9.81913 9.49905C9.96404 9.64397 10.0455 9.84051 10.0455 10.0455C10.0455 10.2504 9.96404 10.4469 9.81913 10.5919C9.67421 10.7368 9.47767 10.8182 9.27273 10.8182H6.18182C5.97688 10.8182 5.78033 10.8996 5.63542 11.0445C5.49051 11.1894 5.40909 11.386 5.40909 11.5909C5.40909 11.7958 5.49051 11.9924 5.63542 12.1373C5.78033 12.2822 5.97688 12.3636 6.18182 12.3636H7.72727V13.1364C7.72727 13.3413 7.80869 13.5379 7.9536 13.6828C8.09852 13.8277 8.29506 13.9091 8.5 13.9091C8.70494 13.9091 8.90149 13.8277 9.0464 13.6828C9.19132 13.5379 9.27273 13.3413 9.27273 13.1364V12.3636C9.88755 12.3636 10.4772 12.1194 10.9119 11.6847C11.3467 11.2499 11.5909 10.6603 11.5909 10.0455C11.5909 9.43063 11.3467 8.841 10.9119 8.40625C10.4772 7.97151 9.88755 7.72727 9.27273 7.72727H7.72727C7.52233 7.72727 7.32579 7.64586 7.18087 7.50095C7.03596 7.35603 6.95455 7.15949 6.95455 6.95455C6.95455 6.74961 7.03596 6.55306 7.18087 6.40814C7.32579 6.26323 7.52233 6.18182 7.72727 6.18182V6.18182ZM8.5 0C6.81886 0 5.17547 0.498516 3.77766 1.43251C2.37984 2.3665 1.29037 3.69402 0.647028 5.24719C0.00368295 6.80036 -0.164645 8.50943 0.163329 10.1583C0.491303 11.8071 1.30085 13.3217 2.4896 14.5104C3.67834 15.6992 5.1929 16.5087 6.84173 16.8367C8.49057 17.1646 10.1996 16.9963 11.7528 16.353C13.306 15.7096 14.6335 14.6202 15.5675 13.2223C16.5015 11.8245 17 10.1811 17 8.5C17 6.24566 16.1045 4.08365 14.5104 2.48959C12.9164 0.895533 10.7543 0 8.5 0V0ZM8.5 15.4545C7.12452 15.4545 5.77993 15.0467 4.63626 14.2825C3.4926 13.5183 2.60121 12.4322 2.07484 11.1614C1.54847 9.89061 1.41074 8.49229 1.67909 7.14324C1.94743 5.79419 2.60979 4.555 3.5824 3.58239C4.55501 2.60978 5.79419 1.94743 7.14324 1.67908C8.49229 1.41074 9.89061 1.54846 11.1614 2.07484C12.4322 2.60121 13.5183 3.49259 14.2825 4.63626C15.0467 5.77993 15.4545 7.12452 15.4545 8.5C15.4545 10.3445 14.7218 12.1134 13.4176 13.4176C12.1134 14.7218 10.3445 15.4545 8.5 15.4545V15.4545Z" fill="white"/>
</g>
<defs>
<clipPath id="clip0_1829_3008">
<rect width="17" height="17" fill="white"/>
</clipPath>
</defs>
</svg>
