<svg width="17" height="17" viewBox="0 0 17 17" fill="none" xmlns="http://www.w3.org/2000/svg">
<path d="M17 0H0V17H17V0Z" fill="white" fill-opacity="0.01"/>
<path d="M4.95833 12.0417C5.93634 12.0417 6.72917 11.2488 6.72917 10.2708C6.72917 9.29283 5.93634 8.5 4.95833 8.5C3.98033 8.5 3.1875 9.29283 3.1875 10.2708C3.1875 11.2488 3.98033 12.0417 4.95833 12.0417Z" stroke="white" stroke-width="1.5" stroke-linecap="round" stroke-linejoin="round"/>
<path d="M12.0413 12.0417C13.0193 12.0417 13.8122 11.2488 13.8122 10.2708C13.8122 9.29283 13.0193 8.5 12.0413 8.5C11.0633 8.5 10.2705 9.29283 10.2705 10.2708C10.2705 11.2488 11.0633 12.0417 12.0413 12.0417Z" stroke="white" stroke-width="1.5" stroke-linecap="round" stroke-linejoin="round"/>
<path d="M8.50033 4.95841C9.47833 4.95841 10.2712 4.16559 10.2712 3.18758C10.2712 2.20958 9.47833 1.41675 8.50033 1.41675C7.52232 1.41675 6.72949 2.20958 6.72949 3.18758C6.72949 4.16559 7.52232 4.95841 8.50033 4.95841Z" stroke="white" stroke-width="1.5" stroke-linecap="round" stroke-linejoin="round"/>
<path d="M8.50033 15.5834C8.50033 13.6274 6.91465 12.0417 4.95866 12.0417C3.00265 12.0417 1.41699 13.6274 1.41699 15.5834" stroke="white" stroke-width="1.5" stroke-linecap="round" stroke-linejoin="round"/>
<path d="M15.5833 15.5834C15.5833 13.6274 13.9977 12.0417 12.0417 12.0417C10.0857 12.0417 8.5 13.6274 8.5 15.5834" stroke="white" stroke-width="1.5" stroke-linecap="round" stroke-linejoin="round"/>
<path d="M12.0413 8.49992C12.0413 6.54393 10.4557 4.95825 8.49967 4.95825C6.54368 4.95825 4.95801 6.54393 4.95801 8.49992" stroke="white" stroke-width="1.5" stroke-linecap="round" stroke-linejoin="round"/>
</svg>
