<svg width="15" height="14" viewBox="0 0 15 14" fill="none" xmlns="http://www.w3.org/2000/svg">
<g clip-path="url(#clip0)">
<path d="M14.0559 6.14727L7.8264 0.132672C7.64492 -0.0442241 7.35548 -0.0442241 7.174 0.132672L0.944759 6.14703C0.853053 6.23554 0.80127 6.35751 0.80127 6.48497C0.80127 6.74439 1.01157 6.95466 1.27096 6.95466H2.09878V13.5303C2.09878 13.7897 2.30906 14 2.56847 14H5.85629C6.1157 14 6.32598 13.7897 6.32598 13.5303V9.77279H8.67442V13.5303C8.67442 13.7897 8.88469 14 9.14411 14H12.4319C12.6913 14 12.9016 13.7897 12.9016 13.5303V6.95466H13.7294C13.8568 6.95466 13.9786 6.90297 14.0671 6.81141C14.2474 6.62488 14.2424 6.32754 14.0559 6.14727ZM12.9016 6.48497C12.6422 6.48497 12.4319 6.69525 12.4319 6.95466L12 12L13 6L9.14411 9.77279C12 9 12.7594 5.5 12.5 5.5L1.5 6.5C1.24059 6.5 5.85629 9.51338 5.85629 9.77279V13.5303L7.5002 0.132672L2.56847 6.95466C2.56847 6.69525 2.3582 6.48497 2.09878 6.48497L12.4319 11.5L7.5002 0.470613L2.56847 8L13.7318 6.48497H12.9016Z" fill="#FFFEFE"/>
</g>
<defs>
<clipPath id="clip0">
<rect width="14" height="14" fill="white" transform="translate(0.5)"/>
</clipPath>
</defs>
</svg>
