<svg width="17" height="17" viewBox="0 0 17 17" fill="none" xmlns="http://www.w3.org/2000/svg">
<path fill-rule="evenodd" clip-rule="evenodd" d="M8.99873 0.189411C8.71458 -0.0631369 8.28641 -0.0631369 8.00226 0.189411L2.18953 5.35561L2.18939 5.35573L0.251771 7.07784C-0.0578335 7.353 -0.0857496 7.82706 0.189419 8.13666C0.464587 8.44627 0.93864 8.47418 1.24824 8.19901L1.93763 7.58631V16.2042C1.93672 16.2193 1.93625 16.2346 1.93625 16.25C1.93625 16.6642 2.27204 17 2.68625 17H14.312C14.4821 17 14.6389 16.9434 14.7647 16.848C14.9461 16.7111 15.0634 16.4937 15.0634 16.249V7.58631L15.7527 8.19901C16.0624 8.47418 16.5364 8.44627 16.8116 8.13666C17.0867 7.82706 17.0588 7.353 16.7492 7.07784L14.8116 5.35573L8.99873 0.189411ZM8.50049 1.75341L3.43763 6.25315V15.499H13.5634V6.25315L8.50049 1.75341Z" fill="white"/>
<rect x="6.59961" y="10.3" width="4" height="6" rx="1" fill="white"/>
</svg>
