<svg width="54" height="50" viewBox="0 0 54 50" fill="none" xmlns="http://www.w3.org/2000/svg">
<path d="M37.5324 39.9722C37.4134 39.8638 37.253 39.8033 37.086 39.804C36.9191 39.8046 36.7592 39.8663 36.6412 39.9756C36.5231 40.0849 36.4565 40.2329 36.4558 40.3875C36.4551 40.5421 36.5204 40.6906 36.6375 40.8008L39.1758 43.151C39.2945 43.2609 39.4555 43.3226 39.6233 43.3226C39.7911 43.3226 39.9521 43.2609 40.0707 43.151L44.8981 38.682C45.0167 38.5721 45.0834 38.423 45.0834 38.2676C45.0834 38.1122 45.0167 37.9632 44.8981 37.8533C44.7794 37.7434 44.6184 37.6816 44.4505 37.6816C44.2827 37.6816 44.1217 37.7434 44.003 37.8533L39.6238 41.9082L37.5324 39.9722Z" fill="black"/>
<path d="M7.19603 47.4609H33.3139C33.6714 47.4596 34.0267 47.4097 34.3686 47.313C35.4837 48.1993 36.7993 48.8427 38.2186 49.1959C39.6378 49.5491 41.1246 49.6031 42.5693 49.3538C44.0141 49.1045 45.38 48.5584 46.5667 47.7556C47.7533 46.9528 48.7303 45.9138 49.4258 44.715C50.1213 43.5163 50.5176 42.1884 50.5855 40.8291C50.6534 39.4698 50.3911 38.1137 49.8181 36.8607C49.245 35.6076 48.3757 34.4896 47.2741 33.5888C46.1726 32.688 44.8669 32.0275 43.4531 31.6559V6.53438C43.4517 6.45016 43.431 6.36718 43.3922 6.29098C43.3535 6.21478 43.2976 6.14711 43.2284 6.09248L36.6167 0.764258C36.4161 0.602471 36.159 0.513241 35.8929 0.512988L13.5267 0.488281C12.5176 0.488562 11.5496 0.858024 10.8334 1.51619C10.1173 2.17435 9.711 3.06788 9.70312 4.00215V5.37109H7.19982C6.18632 5.37383 5.21518 5.74782 4.49852 6.41139C3.78187 7.07496 3.37795 7.97417 3.375 8.9126V43.923C3.37795 44.8604 3.78147 45.7588 4.49741 46.4217C5.21335 47.0846 6.18353 47.4582 7.19603 47.4609ZM49.3308 40.4111C49.3308 41.9793 48.8286 43.5122 47.8877 44.8161C46.9468 46.12 45.6095 47.1363 44.0448 47.7364C42.4801 48.3365 40.7584 48.4935 39.0973 48.1876C37.4362 47.8817 35.9104 47.1266 34.7129 46.0177C33.5153 44.9089 32.6997 43.4961 32.3693 41.9581C32.0389 40.4201 32.2085 38.8259 32.8566 37.3771C33.5047 35.9283 34.6022 34.69 36.0104 33.8188C37.4186 32.9475 39.0742 32.4825 40.7678 32.4825C43.038 32.485 45.2145 33.3211 46.8197 34.8074C48.425 36.2938 49.328 38.3091 49.3306 40.4111H49.3308ZM36.7031 2.36416L41.1422 5.95703H36.7031V2.36416ZM10.9688 4.00234C10.9688 3.38116 11.2353 2.78541 11.7096 2.34617C12.184 1.90692 12.8274 1.66016 13.4983 1.66016H35.4375V6.55625C35.4375 6.63146 35.4535 6.70593 35.4846 6.77541C35.5156 6.8449 35.5612 6.90803 35.6186 6.96121C35.676 7.01439 35.7442 7.05657 35.8193 7.08534C35.8943 7.11412 35.9747 7.12892 36.056 7.12891H42.1875V31.4063C40.4768 31.1752 38.7306 31.3659 37.125 31.9592V11.4143C37.1236 11.33 37.1028 11.2471 37.0641 11.1709C37.0253 11.0947 36.9695 11.027 36.9002 10.9724L30.2649 5.625C30.0794 5.47551 29.8419 5.39305 29.596 5.39277L10.9688 5.37109V4.00234ZM34.8142 10.8398H30.375V7.24414L34.8142 10.8398ZM4.64062 8.88233C4.64062 8.26189 4.90681 7.66687 5.38062 7.22815C5.85443 6.78944 6.49706 6.54297 7.16713 6.54297H29.1094V11.4362C29.1094 11.5889 29.1749 11.7352 29.2914 11.8432C29.408 11.9511 29.5661 12.0117 29.7309 12.0117H35.8594V32.5293C34.612 33.1941 33.5377 34.1047 32.7126 35.1966C31.8876 36.2885 31.3318 37.535 31.0848 38.8478C30.8378 40.1607 30.9056 41.5078 31.2833 42.7937C31.6611 44.0796 32.3395 45.2729 33.2706 46.2891H7.19972C6.52162 46.2872 5.87187 46.037 5.39238 45.593C4.91289 45.149 4.64263 44.5474 4.64062 43.9195V8.88233Z" fill="black"/>
<path d="M14.6133 17.7734H22.2235C22.3913 17.7734 22.5523 17.7117 22.6709 17.6018C22.7896 17.4919 22.8563 17.3429 22.8563 17.1875C22.8563 17.0321 22.7896 16.8831 22.6709 16.7732C22.5523 16.6633 22.3913 16.6016 22.2235 16.6016H14.6133C14.4454 16.6016 14.2845 16.6633 14.1658 16.7732C14.0471 16.8831 13.9805 17.0321 13.9805 17.1875C13.9805 17.3429 14.0471 17.4919 14.1658 17.6018C14.2845 17.7117 14.4454 17.7734 14.6133 17.7734V17.7734Z" fill="black"/>
<path d="M9.98537 18.6316C10.2981 18.6325 10.6041 18.5474 10.8646 18.3871C11.1251 18.2269 11.3284 17.9987 11.4487 17.7314C11.569 17.4641 11.601 17.1698 11.5406 16.8856C11.4802 16.6015 11.33 16.3404 11.1092 16.1353C10.8884 15.9302 10.6069 15.7904 10.3002 15.7335C9.99357 15.6767 9.67558 15.7054 9.38654 15.816C9.09749 15.9265 8.85038 16.1141 8.67648 16.3547C8.50259 16.5954 8.40973 16.8785 8.40967 17.1681C8.40944 17.5555 8.57522 17.9272 8.87063 18.2016C9.16604 18.476 9.56695 18.6306 9.98537 18.6316V18.6316ZM9.98537 16.877C10.0478 16.8762 10.1091 16.8926 10.1615 16.9241C10.2138 16.9556 10.2549 17.0008 10.2794 17.0539C10.304 17.1071 10.3109 17.1658 10.2992 17.2226C10.2876 17.2794 10.258 17.3318 10.2142 17.3729C10.1704 17.4141 10.1143 17.4423 10.0531 17.4539C9.99197 17.4655 9.92845 17.46 9.87067 17.4381C9.81289 17.4161 9.76346 17.3788 9.72867 17.3308C9.69388 17.2828 9.6753 17.2263 9.67529 17.1685C9.67476 17.0918 9.70711 17.018 9.76524 16.9634C9.82338 16.9087 9.90255 16.8777 9.98537 16.877Z" fill="black"/>
<path d="M14.6133 24.6094H30.452C30.6199 24.6094 30.7808 24.5476 30.8995 24.4378C31.0182 24.3279 31.0849 24.1788 31.0849 24.0234C31.0849 23.868 31.0182 23.719 30.8995 23.6091C30.7808 23.4992 30.6199 23.4375 30.452 23.4375H14.6133C14.4454 23.4375 14.2845 23.4992 14.1658 23.6091C14.0471 23.719 13.9805 23.868 13.9805 24.0234C13.9805 24.1788 14.0471 24.3279 14.1658 24.4378C14.2845 24.5476 14.4454 24.6094 14.6133 24.6094V24.6094Z" fill="black"/>
<path d="M9.98537 25.491C10.2981 25.4919 10.6041 25.4068 10.8646 25.2465C11.1251 25.0862 11.3284 24.858 11.4487 24.5907C11.569 24.3234 11.601 24.029 11.5406 23.7449C11.4801 23.4608 11.33 23.1996 11.1091 22.9946C10.8883 22.7895 10.6067 22.6497 10.3 22.5929C9.99335 22.5361 9.67536 22.5648 9.38632 22.6754C9.09728 22.7861 8.85019 22.9736 8.67633 23.2143C8.50247 23.4551 8.40967 23.7381 8.40967 24.0277C8.40953 24.4151 8.57534 24.7867 8.87074 25.061C9.16614 25.3354 9.567 25.49 9.98537 25.491V25.491ZM9.98537 23.7364C10.0478 23.7356 10.1091 23.7519 10.1615 23.7834C10.2138 23.8149 10.2549 23.8601 10.2794 23.9133C10.304 23.9665 10.3109 24.0252 10.2992 24.082C10.2876 24.1388 10.258 24.1912 10.2142 24.2323C10.1703 24.2735 10.1143 24.3017 10.0531 24.3133C9.99189 24.3249 9.92837 24.3193 9.8706 24.2974C9.81282 24.2755 9.7634 24.2381 9.72862 24.1901C9.69384 24.1421 9.67528 24.0855 9.67529 24.0277C9.67479 23.951 9.70715 23.8773 9.76528 23.8227C9.82341 23.7681 9.90256 23.7371 9.98537 23.7364V23.7364Z" fill="black"/>
<path d="M14.6133 31.4453H30.452C30.6199 31.4453 30.7808 31.3836 30.8995 31.2737C31.0182 31.1638 31.0849 31.0148 31.0849 30.8594C31.0849 30.704 31.0182 30.5549 30.8995 30.4451C30.7808 30.3352 30.6199 30.2734 30.452 30.2734H14.6133C14.4454 30.2734 14.2845 30.3352 14.1658 30.4451C14.0471 30.5549 13.9805 30.704 13.9805 30.8594C13.9805 31.0148 14.0471 31.1638 14.1658 31.2737C14.2845 31.3836 14.4454 31.4453 14.6133 31.4453V31.4453Z" fill="black"/>
<path d="M9.98537 32.3504C10.2981 32.3512 10.6041 32.2661 10.8646 32.1059C11.1251 31.9456 11.3284 31.7174 11.4487 31.4501C11.569 31.1828 11.601 30.8884 11.5406 30.6043C11.4801 30.3201 11.33 30.059 11.1091 29.8539C10.8883 29.6489 10.6067 29.5091 10.3 29.4523C9.99335 29.3955 9.67536 29.4242 9.38632 29.5348C9.09728 29.6454 8.85019 29.833 8.67633 30.0737C8.50247 30.3144 8.40967 30.5975 8.40967 30.8871C8.40953 31.2745 8.57534 31.6461 8.87074 31.9204C9.16614 32.1947 9.567 32.3494 9.98537 32.3504V32.3504ZM9.98537 30.5957C10.0478 30.5948 10.1091 30.6112 10.1615 30.6427C10.2138 30.6742 10.2549 30.7194 10.2794 30.7726C10.304 30.8257 10.3109 30.8845 10.2992 30.9413C10.2876 30.9981 10.258 31.0504 10.2142 31.0916C10.1704 31.1328 10.1143 31.161 10.0531 31.1726C9.99196 31.1842 9.92845 31.1786 9.87067 31.1567C9.81289 31.1348 9.76346 31.0974 9.72867 31.0494C9.69388 31.0014 9.6753 30.9449 9.67529 30.8871C9.67484 30.8105 9.70723 30.7368 9.76535 30.6822C9.82347 30.6276 9.90259 30.5966 9.98537 30.5959V30.5957Z" fill="black"/>
<path d="M14.6133 38.3789H30.452C30.6199 38.3789 30.7808 38.3172 30.8995 38.2073C31.0182 38.0974 31.0849 37.9484 31.0849 37.793C31.0849 37.6376 31.0182 37.4885 30.8995 37.3786C30.7808 37.2688 30.6199 37.207 30.452 37.207H14.6133C14.4454 37.207 14.2845 37.2688 14.1658 37.3786C14.0471 37.4885 13.9805 37.6376 13.9805 37.793C13.9805 37.9484 14.0471 38.0974 14.1658 38.2073C14.2845 38.3172 14.4454 38.3789 14.6133 38.3789V38.3789Z" fill="black"/>
<path d="M9.98537 39.2088C10.2981 39.2096 10.6041 39.1245 10.8646 38.9643C11.1251 38.804 11.3284 38.5757 11.4487 38.3084C11.5691 38.0411 11.601 37.7468 11.5405 37.4626C11.4801 37.1785 11.3299 36.9174 11.1091 36.7123C10.8883 36.5072 10.6067 36.3674 10.3 36.3106C9.99328 36.2538 9.67528 36.2826 9.38624 36.3932C9.09721 36.5039 8.85012 36.6914 8.67628 36.9322C8.50243 37.1729 8.40965 37.456 8.40967 37.7456C8.40953 38.133 8.57535 38.5046 8.87075 38.7789C9.16615 39.0532 9.56701 39.2078 9.98537 39.2088V39.2088ZM9.98537 37.4542C10.0478 37.4533 10.1091 37.4697 10.1615 37.5012C10.2138 37.5327 10.2549 37.5779 10.2794 37.6311C10.304 37.6842 10.3109 37.743 10.2992 37.7998C10.2876 37.8566 10.258 37.9089 10.2142 37.9501C10.1704 37.9913 10.1143 38.0195 10.0531 38.031C9.99197 38.0426 9.92845 38.0371 9.87067 38.0152C9.81289 37.9933 9.76346 37.9559 9.72867 37.9079C9.69388 37.8599 9.6753 37.8034 9.67529 37.7456C9.67487 37.669 9.70727 37.5953 9.76539 37.5408C9.82351 37.4862 9.90262 37.4552 9.98537 37.4546V37.4542Z" fill="black"/>
<path d="M6.96094 9.55371C7.12877 9.55371 7.28973 9.49198 7.4084 9.38209C7.52708 9.27221 7.59375 9.12317 7.59375 8.96777V8.54785C7.59375 8.39245 7.52708 8.24342 7.4084 8.13353C7.28973 8.02365 7.12877 7.96191 6.96094 7.96191C6.79311 7.96191 6.63215 8.02365 6.51347 8.13353C6.3948 8.24342 6.32813 8.39245 6.32812 8.54785V8.96777C6.32813 9.12317 6.3948 9.27221 6.51347 9.38209C6.63215 9.49198 6.79311 9.55371 6.96094 9.55371Z" fill="black"/>
<path d="M6.96094 19.0264C7.12877 19.0264 7.28973 18.9646 7.4084 18.8547C7.52708 18.7449 7.59375 18.5958 7.59375 18.4404V11.0186C7.59375 10.8632 7.52708 10.7141 7.4084 10.6042C7.28973 10.4943 7.12877 10.4326 6.96094 10.4326C6.79311 10.4326 6.63215 10.4943 6.51347 10.6042C6.3948 10.7141 6.32813 10.8632 6.32812 11.0186V18.4404C6.32813 18.5958 6.3948 18.7449 6.51347 18.8547C6.63215 18.9646 6.79311 19.0264 6.96094 19.0264Z" fill="black"/>
</svg>
