<svg width="21" height="14" viewBox="0 0 21 14" fill="none" xmlns="http://www.w3.org/2000/svg">
<path d="M7.14575 3.5H3.35409C2.79117 3.5 2.33325 3.04208 2.33325 2.47917V1.60417C2.33325 1.36267 2.52925 1.16667 2.77075 1.16667H3.70642C3.89775 0.494083 4.51667 0 5.24992 0C5.98317 0 6.60209 0.494083 6.79342 1.16667H7.72908C7.97058 1.16667 8.16658 1.36267 8.16658 1.60417V2.47917C8.16658 3.04208 7.70867 3.5 7.14575 3.5Z" fill="#FFFEFE"/>
<path d="M8.89583 1.75H8.75V2.47917C8.75 3.36408 8.03075 4.08333 7.14583 4.08333H3.35417C2.46925 4.08333 1.75 3.36408 1.75 2.47917V1.75H1.60417C0.71925 1.75 0 2.46925 0 3.35417V12.3958C0 13.2807 0.71925 14 1.60417 14H8.89583C9.78075 14 10.5 13.2807 10.5 12.3958V3.35417C10.5 2.46925 9.78075 1.75 8.89583 1.75ZM8.3125 12.25H2.1875C1.946 12.25 1.75 12.054 1.75 11.8125C1.75 11.571 1.946 11.375 2.1875 11.375H8.3125C8.554 11.375 8.75 11.571 8.75 11.8125C8.75 12.054 8.554 12.25 8.3125 12.25ZM8.3125 10.5H2.1875C1.946 10.5 1.75 10.304 1.75 10.0625C1.75 9.821 1.946 9.625 2.1875 9.625H8.3125C8.554 9.625 8.75 9.821 8.75 10.0625C8.75 10.304 8.554 10.5 8.3125 10.5ZM8.3125 8.75H2.1875C1.946 8.75 1.75 8.554 1.75 8.3125C1.75 8.071 1.946 7.875 2.1875 7.875H8.3125C8.554 7.875 8.75 8.071 8.75 8.3125C8.75 8.554 8.554 8.75 8.3125 8.75ZM8.3125 7H2.1875C1.946 7 1.75 6.804 1.75 6.5625C1.75 6.321 1.946 6.125 2.1875 6.125H8.3125C8.554 6.125 8.75 6.321 8.75 6.5625C8.75 6.804 8.554 7 8.3125 7Z" fill="#FFFEFE"/>
<g clip-path="url(#clip0)">
<path d="M16.4048 4.93299C17.2229 5.723 17.2457 7.03128 16.4557 7.84936C15.6657 8.66744 14.3574 8.69028 13.5393 7.90027C12.7212 7.11026 12.6984 5.80198 13.4884 4.9839C14.2784 4.1658 15.5867 4.14297 16.4048 4.93299ZM16.1877 5.15778C15.4936 4.48747 14.3835 4.50685 13.7132 5.20098C13.0429 5.89511 13.0623 7.00516 13.7564 7.67547C14.4505 8.34579 15.5606 8.32641 16.2309 7.63228C16.9012 6.93815 16.8818 5.82809 16.1877 5.15778Z" fill="#FFFEFE"/>
<path d="M14.9488 5.07008C14.8625 5.07159 14.7938 5.14276 14.7953 5.22903C14.7968 5.31531 14.868 5.38404 14.9543 5.38252C15.2305 5.37771 15.492 5.48072 15.6907 5.67262C15.8894 5.86451 16.0015 6.12231 16.0064 6.39852C16.0071 6.44167 16.0253 6.48041 16.054 6.50819C16.0828 6.53596 16.1222 6.55277 16.1653 6.55202C16.2516 6.55051 16.3203 6.47935 16.3188 6.39306C16.3125 6.03339 16.1666 5.6977 15.9078 5.44781C15.6491 5.19797 15.3085 5.0638 14.9488 5.07008Z" fill="#FFFEFE"/>
<path d="M15.5573 13.1803C15.4347 13.3071 15.2701 13.3787 15.0938 13.3818C14.9174 13.3849 14.7504 13.3191 14.6235 13.1966C14.4966 13.074 14.4251 12.9094 14.422 12.7331L14.3756 10.0783C14.2791 10.0541 14.1923 10.0049 14.1227 9.93778C14.0196 9.83825 13.9545 9.69948 13.9518 9.54523L13.9441 9.10688C13.5913 8.97265 13.2595 8.76665 12.9712 8.48829C11.8287 7.38497 11.7968 5.55786 12.9001 4.41534C13.8079 3.47533 15.2375 3.2637 16.3767 3.90072C16.452 3.94279 16.479 4.03802 16.4368 4.11336C16.3947 4.18868 16.2995 4.21558 16.2242 4.17347C15.2087 3.60563 13.9342 3.79436 13.1249 4.63242C12.1413 5.65098 12.1698 7.27988 13.1883 8.26349C14.2069 9.24711 15.8358 9.21868 16.8194 8.20012C17.6287 7.36208 17.7728 6.08184 17.1699 5.08678C17.1252 5.01298 17.1488 4.91689 17.2226 4.87218C17.2964 4.82746 17.3925 4.85109 17.4372 4.92485C18.1136 6.04112 17.9519 7.47723 17.0442 8.41721C16.7659 8.70545 16.4414 8.9229 16.0935 9.06938L16.1012 9.50773C16.1057 9.76607 15.9334 9.98703 15.6962 10.0553L15.7425 12.71C15.7456 12.8864 15.6798 13.0534 15.5573 13.1803ZM14.5155 9.78245L15.546 9.76447C15.6822 9.7621 15.7911 9.64936 15.7887 9.51316L15.7829 9.17961C15.287 9.3242 14.7591 9.33341 14.2584 9.20622L14.2642 9.53978C14.2666 9.67597 14.3793 9.78484 14.5155 9.78245ZM15.3325 12.9632C15.397 12.8964 15.4317 12.8084 15.43 12.7155L15.384 10.0798L14.6884 10.092L14.7344 12.7276C14.7361 12.8205 14.7738 12.9072 14.8406 12.9718C14.9074 13.0363 14.9954 13.071 15.0883 13.0693C15.1812 13.0677 15.2679 13.03 15.3325 12.9632Z" fill="#FFFEFE"/>
<path d="M16.756 4.56938C16.7855 4.59792 16.8262 4.61391 16.8672 4.61318C16.9083 4.61247 16.9484 4.59508 16.9769 4.56552C17.0055 4.53596 17.0214 4.49535 17.0207 4.45426C17.02 4.41316 17.0026 4.37313 16.9731 4.34458C16.9435 4.31604 16.9029 4.30006 16.8618 4.30078C16.8207 4.3015 16.7807 4.31888 16.7521 4.34844C16.7236 4.378 16.7076 4.41861 16.7083 4.45971C16.709 4.5008 16.7264 4.54083 16.756 4.56938Z" fill="#FFFEFE"/>
</g>
<defs>
<clipPath id="clip0">
<rect width="8" height="8" fill="white" transform="translate(14.9011 2.34375) rotate(44)"/>
</clipPath>
</defs>
</svg>
