<svg width="15" height="14" viewBox="0 0 15 14" fill="none" xmlns="http://www.w3.org/2000/svg">
<g clip-path="url(#clip0)">
<path d="M3.14194 0H13.1708C13.7368 0 14.1804 0.44357 14.1804 1.00961V12.9904C14.1804 13.5565 13.737 14 13.1708 14H3.14194C2.57587 14 2.13232 13.5565 2.13232 12.9904V1.00961C2.13232 0.44357 2.57589 0 3.14194 0Z" fill="#FFFEFE"/>
<path d="M2.63714 6.49512H1.32464C1.04582 6.49512 0.819824 6.72111 0.819824 6.99994C0.819824 7.27876 1.04582 7.50476 1.32464 7.50476H2.63714C2.9158 7.50476 3.14194 7.27876 3.14196 6.99994C3.14194 6.72111 2.91597 6.49512 2.63714 6.49512Z" fill="#FFFEFE"/>
<path d="M2.63714 4.15625H1.32464C1.04582 4.15625 0.819824 4.38225 0.819824 4.66107C0.819824 4.93989 1.04582 5.16589 1.32464 5.16589H2.63714C2.9158 5.16589 3.14196 4.93989 3.14196 4.66107C3.14196 4.38225 2.91597 4.15625 2.63714 4.15625Z" fill="#FFFEFE"/>
<path d="M2.63714 1.81738H1.32464C1.04582 1.81738 0.819824 2.04338 0.819824 2.3222C0.819824 2.60103 1.04582 2.827 1.32464 2.827H2.63714C2.9158 2.827 3.14196 2.601 3.14196 2.3222C3.14194 2.04335 2.91597 1.81738 2.63714 1.81738Z" fill="#FFFEFE"/>
<path d="M2.63714 8.83398H1.32464C1.04582 8.83398 0.819824 9.05998 0.819824 9.3388C0.819824 9.61763 1.04582 9.84363 1.32464 9.84363H2.63714C2.9158 9.84363 3.14196 9.61763 3.14196 9.3388C3.14194 9.05998 2.91597 8.83398 2.63714 8.83398Z" fill="#FFFEFE"/>
<path d="M2.63714 11.1729H1.32464C1.04582 11.1729 0.819824 11.3988 0.819824 11.6777C0.819824 11.9565 1.04582 12.1825 1.32464 12.1825H2.63714C2.9158 12.1825 3.14196 11.9565 3.14196 11.6777C3.14194 11.3988 2.91597 11.1729 2.63714 11.1729Z" fill="#FFFEFE"/>
</g>
<defs>
<clipPath id="clip0">
<rect width="14" height="14" fill="white" transform="translate(0.5)"/>
</clipPath>
</defs>
</svg>
