<svg width="44" height="50" viewBox="0 0 44 50" fill="none" xmlns="http://www.w3.org/2000/svg">
<path d="M27.081 20.5232L26.808 20.6413L27.0969 20.7121C31.0669 21.6846 34.6667 23.7972 37.5362 26.8975C41.638 31.3291 43.9 37.4608 43.9 44.1668C43.9 44.2915 43.8645 44.4147 43.7961 44.5245C43.7277 44.6344 43.6284 44.7274 43.5071 44.7936C43.1296 44.9995 34.0075 49.9 22 49.9C10.9182 49.9 0.939351 45.0157 0.522128 44.8088L0.477698 44.8984L0.522124 44.8088C0.392715 44.7446 0.285966 44.6505 0.212151 44.5375C0.138405 44.4246 0.100001 44.2966 0.1 44.1668C0.1 37.4608 2.36197 31.3291 6.46381 26.8975C9.33335 23.7975 12.9331 21.6846 16.9031 20.7121L17.192 20.6413L16.919 20.5232C14.4964 19.4751 12.5401 17.7101 11.3697 15.52C10.1993 13.3302 9.88345 10.8447 10.4731 8.47101C11.0627 6.09716 12.5236 3.97419 14.6181 2.45214C16.7128 0.929989 19.316 0.1 22 0.1C24.684 0.1 27.2872 0.929989 29.3819 2.45214C31.4764 3.97419 32.9373 6.09716 33.5269 8.47101C34.1166 10.8447 33.8007 13.3302 32.6303 15.52C31.4599 17.7101 29.5036 19.4751 27.081 20.5232ZM11.8167 10.8344L11.8167 10.8345C11.8197 13.2944 12.8961 15.6507 14.8061 17.3869C16.7157 19.1229 19.303 20.098 21.9999 20.1008H22C24.0121 20.1008 25.9796 19.5584 27.6539 18.5414C29.3283 17.5244 30.6348 16.0779 31.4068 14.3837C32.1788 12.6893 32.381 10.8242 31.9873 9.0247C31.5936 7.22532 30.622 5.57392 29.1973 4.27871C27.7726 2.98359 25.9586 2.10252 23.985 1.74565C22.0114 1.38878 19.9656 1.57187 18.106 2.27209C16.2464 2.97232 14.6555 4.15868 13.5354 5.68253C12.4153 7.20652 11.8167 8.99938 11.8167 10.8344ZM42.2067 43.7704L42.2636 43.7424L42.2625 43.679C42.1566 37.5124 40.0436 31.9004 36.2802 27.8346L36.2068 27.9026L36.2802 27.8346C32.539 23.7935 27.4676 21.5674 22 21.5674C16.5324 21.5674 11.461 23.7935 7.71978 27.8346L7.79316 27.9026L7.71977 27.8346C3.96039 31.8961 1.84832 37.5003 1.73793 43.6592L1.73676 43.7248L1.79647 43.752C3.91486 44.7167 12.684 48.4334 22 48.4334C32.0721 48.4334 40.2394 44.7385 42.2067 43.7704Z" fill="black" stroke="black" stroke-width="0.2"/>
</svg>
