<svg width="27" height="18" viewBox="0 0 27 18" fill="none" xmlns="http://www.w3.org/2000/svg">
<path d="M23.3512 7.81602C24.1419 7.24033 24.6654 6.2827 24.6654 5.2033C24.6654 3.4375 23.2871 2.00936 21.5829 2.00936C19.8787 2.00936 18.5004 3.4375 18.5004 5.2033C18.5004 6.2827 19.0186 7.24033 19.8146 7.81602C19.1361 8.05957 18.5164 8.43598 17.9929 8.9231C17.2717 8.28653 16.4222 7.79941 15.4927 7.51157C16.6199 6.80303 17.3785 5.51328 17.3785 4.04639C17.3785 1.81008 15.6316 0 13.4733 0C11.315 0 9.56807 1.81562 9.56807 4.04639C9.56807 5.51328 10.3213 6.80303 11.4539 7.51157C10.535 7.79941 9.69628 8.28099 8.98041 8.90649C8.45687 8.43045 7.84784 8.05957 7.18006 7.82155C7.97072 7.24587 8.49426 6.28824 8.49426 5.20883C8.49426 3.44303 7.11595 2.01489 5.41175 2.01489C3.70756 2.01489 2.32924 3.44303 2.32924 5.20883C2.32924 6.28824 2.84745 7.24587 3.64345 7.82155C1.52256 8.5799 0 10.6668 0 13.1189V13.4843C0 13.4954 0.0106846 13.5064 0.0213692 13.5064H6.55501C6.51761 13.8109 6.49624 14.1264 6.49624 14.4419V14.8183C6.49624 16.4457 7.76771 17.7632 9.33835 17.7632H17.6189C19.1896 17.7632 20.461 16.4457 20.461 14.8183V14.4419C20.461 14.1264 20.4397 13.8109 20.4023 13.5064H26.9786C26.9893 13.5064 27 13.4954 27 13.4843V13.1189C26.9893 10.6612 25.4721 8.57437 23.3512 7.81602ZM19.3552 5.19776C19.3552 3.92461 20.3542 2.88949 21.5829 2.88949C22.8116 2.88949 23.8106 3.92461 23.8106 5.19776C23.8106 6.4543 22.833 7.47836 21.6256 7.50603C21.6096 7.50603 21.5989 7.50603 21.5829 7.50603C21.5669 7.50603 21.5562 7.50603 21.5402 7.50603C20.3275 7.48389 19.3552 6.45984 19.3552 5.19776ZM10.4121 4.04639C10.4121 2.30274 11.7798 0.885668 13.4626 0.885668C15.1454 0.885668 16.5131 2.30274 16.5131 4.04639C16.5131 5.72916 15.2362 7.10748 13.6389 7.20158C13.5801 7.20158 13.5214 7.20158 13.4626 7.20158C13.4038 7.20158 13.3451 7.20158 13.2863 7.20158C11.689 7.10748 10.4121 5.72916 10.4121 4.04639ZM3.16799 5.19776C3.16799 3.92461 4.167 2.88949 5.39573 2.88949C6.62446 2.88949 7.62347 3.92461 7.62347 5.19776C7.62347 6.4543 6.64583 7.47836 5.43846 7.50603C5.42244 7.50603 5.41175 7.50603 5.39573 7.50603C5.3797 7.50603 5.36901 7.50603 5.35299 7.50603C4.14563 7.48389 3.16799 6.45984 3.16799 5.19776ZM6.70459 12.6152H0.865453C1.10586 10.2571 3.02909 8.40831 5.36367 8.3917C5.37436 8.3917 5.38504 8.3917 5.39573 8.3917C5.40641 8.3917 5.4171 8.3917 5.42778 8.3917C6.53898 8.39724 7.55402 8.82346 8.33934 9.51539C7.57004 10.3789 6.99842 11.4417 6.70459 12.6152ZM19.5956 14.8183C19.5956 15.9531 18.7034 16.8775 17.6082 16.8775H9.32766C8.23249 16.8775 7.34032 15.9531 7.34032 14.8183V14.4419C7.34032 11.0044 9.99011 8.19242 13.2863 8.09279C13.3451 8.09832 13.4092 8.09832 13.4679 8.09832C13.5267 8.09832 13.5908 8.09832 13.6496 8.09279C16.9458 8.19242 19.5956 11.0044 19.5956 14.4419V14.8183V14.8183ZM20.2313 12.6152C19.9375 11.4473 19.3765 10.4011 18.6126 9.53753C19.4032 8.829 20.429 8.40277 21.5509 8.3917C21.5615 8.3917 21.5722 8.3917 21.5829 8.3917C21.5936 8.3917 21.6043 8.3917 21.615 8.3917C23.9495 8.40831 25.8728 10.2571 26.1132 12.6152H20.2313Z" fill="black"/>
</svg>
