<svg width="13" height="15" viewBox="0 0 13 15" fill="none" xmlns="http://www.w3.org/2000/svg">
<path d="M11.8268 2.31716C11.9858 2.07962 12.0708 1.8054 12.0708 1.51995C12.0708 0.681835 11.3331 0 10.4264 0C9.51965 0 8.78195 0.681835 8.78195 1.51992C8.78195 1.80799 8.86846 2.08436 9.02998 2.32324C8.28076 2.59915 7.87329 3.10661 7.87329 3.77671V4.73201C7.87329 4.85283 7.97926 4.95075 8.10995 4.95075C8.24064 4.95075 8.34661 4.85283 8.34661 4.73201V3.77671C8.34661 3.21366 8.72974 2.83262 9.48532 2.64415C9.56657 2.62386 9.63006 2.56527 9.65207 2.49017C9.67408 2.41511 9.65131 2.33486 9.59224 2.27944C9.37494 2.07557 9.25524 1.80584 9.25524 1.51989C9.25524 0.923017 9.78062 0.437422 10.4264 0.437422C11.0722 0.437422 11.5975 0.923017 11.5975 1.51989C11.5975 1.804 11.4791 2.07252 11.264 2.276C11.2052 2.33169 11.1828 2.41205 11.2052 2.48706C11.2276 2.56207 11.2915 2.62043 11.3728 2.64031C12.1385 2.82735 12.5267 3.20967 12.5267 3.77668V5.50934C12.5267 5.67636 12.3797 5.8122 12.199 5.8122C12.0183 5.8122 11.8713 5.67636 11.8713 5.50934V3.94454C11.8713 3.82372 11.7653 3.7258 11.6346 3.7258C11.5039 3.7258 11.398 3.82372 11.398 3.94454V8.58445C11.398 8.70528 11.5039 8.80319 11.6346 8.80319C11.7654 8.80319 11.8713 8.70528 11.8713 8.58445V6.18486C11.9714 6.22648 12.0823 6.24968 12.199 6.24968C12.2023 6.24968 12.2056 6.24948 12.2089 6.24945V10.7674C12.2089 10.8883 12.3149 10.9862 12.4455 10.9862C12.5762 10.9862 12.6822 10.8883 12.6822 10.7674V6.09934C12.8751 5.96402 13 5.74997 13 5.5094V3.77674C13 3.10134 12.5866 2.5917 11.8268 2.31716Z" fill="#333333"/>
<path d="M10.4365 10.7519C10.5885 10.8963 10.8008 10.9862 11.0355 10.9862C11.4963 10.9862 11.8712 10.6397 11.8712 10.2138V9.45941C11.8712 9.33859 11.7652 9.24067 11.6345 9.24067C11.5039 9.24067 11.3979 9.33859 11.3979 9.45941V10.2138C11.3979 10.3985 11.2353 10.5487 11.0355 10.5487C10.8357 10.5487 10.6731 10.3985 10.6731 10.2138V7.39132C10.6731 7.2705 10.5672 7.17258 10.4365 7.17258C10.3058 7.17258 10.1998 7.2705 10.1998 7.39132V10.2138C10.1998 10.3985 10.0373 10.5487 9.83744 10.5487C9.63762 10.5487 9.47506 10.3985 9.47506 10.2138V3.9446C9.47506 3.82378 9.36909 3.72586 9.2384 3.72586C9.10771 3.72586 9.00174 3.82378 9.00174 3.9446V6.55932C9.00174 6.72634 8.85474 6.86218 8.67407 6.86218C8.49337 6.86218 8.34637 6.72634 8.34637 6.55932V5.60697C8.34637 5.48614 8.2404 5.38823 8.10971 5.38823C7.97902 5.38823 7.87305 5.48614 7.87305 5.60697V6.55932C7.87305 6.96755 8.23237 7.29963 8.67404 7.29963C8.79068 7.29963 8.90163 7.27647 9.00171 7.23481V10.2138C9.00171 10.6397 9.37659 10.9862 9.83737 10.9862C10.0722 10.9862 10.2846 10.8963 10.4365 10.7519Z" fill="#333333"/>
<path d="M4.68468 8.40921V6.84115C4.68468 6.22789 4.31456 5.76366 3.63345 5.50997C3.77057 5.29667 3.84379 5.05255 3.84379 4.79873C3.84379 4.02879 3.16608 3.4024 2.33306 3.4024C1.50005 3.4024 0.822343 4.02879 0.822343 4.79873C0.822343 5.05496 0.896821 5.30109 1.03624 5.51564C0.364895 5.77053 0 6.23275 0 6.84112V7.12733C0 7.24816 0.10597 7.34607 0.23666 7.34607C0.367351 7.34607 0.473321 7.24816 0.473321 7.12733V6.84112C0.473321 6.34211 0.81447 6.00403 1.48726 5.83623C1.56851 5.81594 1.632 5.75735 1.65401 5.68225C1.67602 5.60718 1.65322 5.52691 1.59417 5.47151C1.4017 5.29093 1.29566 5.05199 1.29566 4.7987C1.29566 4.27 1.76105 3.83986 2.33306 3.83986C2.90508 3.83986 3.37046 4.27 3.37046 4.7987C3.37046 5.05036 3.26557 5.2882 3.07504 5.46849C3.01621 5.52414 2.99382 5.60451 3.01621 5.67954C3.0386 5.75455 3.10247 5.81291 3.18384 5.83279C3.86564 5.99931 4.21133 6.33859 4.21133 6.84112V8.40918C4.21133 8.54887 4.08838 8.66253 3.93728 8.66253C3.78616 8.66253 3.66321 8.5489 3.66321 8.40918V6.99303C3.66321 6.87221 3.55724 6.77429 3.42655 6.77429C3.29586 6.77429 3.18989 6.87221 3.18989 6.99303V7.41453H1.49479V6.99303C1.49479 6.87221 1.38885 6.77429 1.25813 6.77429C1.1274 6.77429 1.02147 6.87221 1.02147 6.99303V8.40918C1.02147 8.54887 0.898522 8.66253 0.747393 8.66253C0.596264 8.66253 0.473321 8.5489 0.473321 8.40918V8.00226C0.473321 7.88144 0.367382 7.78352 0.23666 7.78352C0.10597 7.78352 0 7.88144 0 8.00226V8.40918C0 8.79008 0.335261 9.09998 0.747362 9.09998C0.844073 9.09998 0.936532 9.08292 1.02143 9.05187V10.2663C1.02143 10.6632 1.37077 10.9861 1.80019 10.9861C2.01072 10.9861 2.202 10.9085 2.34232 10.7826C2.48265 10.9085 2.6739 10.9861 2.88442 10.9861C3.31384 10.9861 3.66318 10.6632 3.66318 10.2663V9.05187C3.74808 9.0829 3.84054 9.09998 3.93725 9.09998C4.34938 9.10001 4.68468 8.79011 4.68468 8.40921ZM3.18992 7.85204V8.19196C2.81797 8.5459 2.47478 8.70596 2.34235 8.70596C2.20993 8.70596 1.86667 8.5459 1.49479 8.19196V7.85204H3.18992ZM1.80022 10.5487C1.63181 10.5487 1.49475 10.4221 1.49475 10.2664V8.78094C1.67438 8.91381 1.89083 9.04541 2.10569 9.10705V10.2664C2.10569 10.4221 1.96867 10.5487 1.80022 10.5487ZM2.88445 10.5487C2.71604 10.5487 2.57898 10.4221 2.57898 10.2664V9.10705C2.79385 9.04541 3.01029 8.91381 3.18992 8.78094V10.2664C3.18992 10.4221 3.0529 10.5487 2.88445 10.5487Z" fill="#333333"/>
<path d="M6.32529 10.4149C4.98657 10.4149 3.89746 11.4215 3.89746 12.6589C3.89746 13.8962 4.98657 14.9029 6.32529 14.9029C7.66401 14.9029 8.75312 13.8962 8.75312 12.6589C8.75312 11.4215 7.66401 10.4149 6.32529 10.4149ZM6.32529 14.4654C5.24755 14.4654 4.37075 13.655 4.37075 12.6589C4.37075 11.6627 5.24755 10.8523 6.32529 10.8523C7.40303 10.8523 8.27983 11.6627 8.27983 12.6589C8.27983 13.655 7.403 14.4654 6.32529 14.4654Z" fill="#333333"/>
<path d="M6.32553 11.5716C6.19484 11.5716 6.08887 11.6695 6.08887 11.7903V12.5521L5.66215 12.8598C5.55911 12.9341 5.54072 13.0715 5.62112 13.1668C5.70192 13.2625 5.85104 13.2786 5.95329 13.2047L6.47112 12.8313C6.52859 12.7898 6.56219 12.7262 6.56219 12.6588V11.7903C6.56219 11.6695 6.45622 11.5716 6.32553 11.5716Z" fill="#333333"/>
<path d="M2.98991 12.4401H0.98666C0.85597 12.4401 0.75 12.538 0.75 12.6589C0.75 12.7797 0.855938 12.8776 0.98666 12.8776H2.98994C3.12063 12.8776 3.2266 12.7797 3.2266 12.6589C3.2266 12.538 3.1206 12.4401 2.98991 12.4401Z" fill="#333333"/>
<path d="M10.8248 11.6308C10.7294 11.5482 10.5797 11.5525 10.4903 11.6407C10.4008 11.7288 10.4056 11.8672 10.5009 11.9499L11.0664 12.4402H9.66122C9.53053 12.4402 9.42456 12.5381 9.42456 12.6589C9.42456 12.7797 9.5305 12.8777 9.66122 12.8777H11.0664L10.5009 13.368C10.4056 13.4506 10.4009 13.589 10.4903 13.6771C10.5799 13.7654 10.7296 13.7695 10.8248 13.687L11.8264 12.8184C11.9252 12.7364 11.9252 12.5815 11.8264 12.4994L10.8248 11.6308Z" fill="#333333"/>
</svg>
