<svg width="22" height="24" viewBox="0 0 22 24" fill="none" xmlns="http://www.w3.org/2000/svg">
<path d="M8.41276 18.6667C8.72218 18.6667 9.01893 18.5438 9.23772 18.325C9.45651 18.1062 9.57943 17.8094 9.57943 17.5V10.5C9.57943 10.1906 9.45651 9.89383 9.23772 9.67504C9.01893 9.45625 8.72218 9.33333 8.41276 9.33333C8.10334 9.33333 7.80659 9.45625 7.5878 9.67504C7.36901 9.89383 7.24609 10.1906 7.24609 10.5V17.5C7.24609 17.8094 7.36901 18.1062 7.5878 18.325C7.80659 18.5438 8.10334 18.6667 8.41276 18.6667ZM20.0794 4.66667H15.4128V3.5C15.4128 2.57174 15.044 1.6815 14.3876 1.02513C13.7313 0.368749 12.841 0 11.9128 0H9.57943C8.65117 0 7.76093 0.368749 7.10455 1.02513C6.44818 1.6815 6.07943 2.57174 6.07943 3.5V4.66667H1.41276C1.10334 4.66667 0.806595 4.78958 0.587802 5.00838C0.36901 5.22717 0.246094 5.52391 0.246094 5.83333C0.246094 6.14275 0.36901 6.4395 0.587802 6.65829C0.806595 6.87708 1.10334 7 1.41276 7H2.57943V19.8333C2.57943 20.7616 2.94818 21.6518 3.60455 22.3082C4.26093 22.9646 5.15117 23.3333 6.07943 23.3333H15.4128C16.341 23.3333 17.2313 22.9646 17.8876 22.3082C18.544 21.6518 18.9128 20.7616 18.9128 19.8333V7H20.0794C20.3888 7 20.6856 6.87708 20.9044 6.65829C21.1232 6.4395 21.2461 6.14275 21.2461 5.83333C21.2461 5.52391 21.1232 5.22717 20.9044 5.00838C20.6856 4.78958 20.3888 4.66667 20.0794 4.66667ZM8.41276 3.5C8.41276 3.19058 8.53568 2.89383 8.75447 2.67504C8.97326 2.45625 9.27001 2.33333 9.57943 2.33333H11.9128C12.2222 2.33333 12.5189 2.45625 12.7377 2.67504C12.9565 2.89383 13.0794 3.19058 13.0794 3.5V4.66667H8.41276V3.5ZM16.5794 19.8333C16.5794 20.1428 16.4565 20.4395 16.2377 20.6583C16.0189 20.8771 15.7222 21 15.4128 21H6.07943C5.77001 21 5.47326 20.8771 5.25447 20.6583C5.03568 20.4395 4.91276 20.1428 4.91276 19.8333V7H16.5794V19.8333ZM13.0794 18.6667C13.3888 18.6667 13.6856 18.5438 13.9044 18.325C14.1232 18.1062 14.2461 17.8094 14.2461 17.5V10.5C14.2461 10.1906 14.1232 9.89383 13.9044 9.67504C13.6856 9.45625 13.3888 9.33333 13.0794 9.33333C12.77 9.33333 12.4733 9.45625 12.2545 9.67504C12.0357 9.89383 11.9128 10.1906 11.9128 10.5V17.5C11.9128 17.8094 12.0357 18.1062 12.2545 18.325C12.4733 18.5438 12.77 18.6667 13.0794 18.6667Z" fill="#C91821"/>
</svg>
