<svg width="19" height="20" viewBox="0 0 19 20" fill="none" xmlns="http://www.w3.org/2000/svg">
<path d="M7.01063 15.5556C7.26848 15.5556 7.51578 15.4532 7.6981 15.2708C7.88043 15.0885 7.98286 14.8412 7.98286 14.5833V8.75C7.98286 8.49216 7.88043 8.24486 7.6981 8.06253C7.51578 7.88021 7.26848 7.77777 7.01063 7.77777C6.75278 7.77777 6.50549 7.88021 6.32317 8.06253C6.14084 8.24486 6.03841 8.49216 6.03841 8.75V14.5833C6.03841 14.8412 6.14084 15.0885 6.32317 15.2708C6.50549 15.4532 6.75278 15.5556 7.01063 15.5556ZM16.7328 3.88889H12.844V2.91667C12.844 2.14312 12.5367 1.40125 11.9897 0.854275C11.4428 0.307291 10.7008 0 9.92734 0H7.98286C7.20931 0 6.46744 0.307291 5.92046 0.854275C5.37348 1.40125 5.06619 2.14312 5.06619 2.91667V3.88889H1.1773C0.91945 3.88889 0.672162 3.99132 0.489835 4.17365C0.307508 4.35597 0.205078 4.60326 0.205078 4.86111C0.205078 5.11896 0.307508 5.36625 0.489835 5.54857C0.672162 5.7309 0.91945 5.83333 1.1773 5.83333H2.14953V16.5277C2.14953 17.3013 2.45682 18.0432 3.00379 18.5902C3.55078 19.1372 4.29264 19.4444 5.06619 19.4444H12.844C13.6175 19.4444 14.3594 19.1372 14.9063 18.5902C15.4533 18.0432 15.7607 17.3013 15.7607 16.5277V5.83333H16.7328C16.9907 5.83333 17.238 5.7309 17.4203 5.54857C17.6027 5.36625 17.7051 5.11896 17.7051 4.86111C17.7051 4.60326 17.6027 4.35597 17.4203 4.17365C17.238 3.99132 16.9907 3.88889 16.7328 3.88889ZM7.01063 2.91667C7.01063 2.65882 7.11307 2.41152 7.29539 2.2292C7.47772 2.04687 7.72501 1.94444 7.98286 1.94444H9.92734C10.1852 1.94444 10.4324 2.04687 10.6148 2.2292C10.7971 2.41152 10.8995 2.65882 10.8995 2.91667V3.88889H7.01063V2.91667ZM13.8162 16.5277C13.8162 16.7857 13.7138 17.0329 13.5314 17.2152C13.3491 17.3976 13.1018 17.5 12.844 17.5H5.06619C4.80834 17.5 4.56105 17.3976 4.37873 17.2152C4.1964 17.0329 4.09397 16.7857 4.09397 16.5277V5.83333H13.8162V16.5277ZM10.8995 15.5556C11.1573 15.5556 11.4047 15.4532 11.587 15.2708C11.7693 15.0885 11.8718 14.8412 11.8718 14.5833V8.75C11.8718 8.49216 11.7693 8.24486 11.587 8.06253C11.4047 7.88021 11.1573 7.77777 10.8995 7.77777C10.6417 7.77777 10.3944 7.88021 10.2121 8.06253C10.0298 8.24486 9.92734 8.49216 9.92734 8.75V14.5833C9.92734 14.8412 10.0298 15.0885 10.2121 15.2708C10.3944 15.4532 10.6417 15.5556 10.8995 15.5556Z" fill="#D92932"/>
</svg>
