<svg width="30" height="39" viewBox="0 0 30 39" fill="none" xmlns="http://www.w3.org/2000/svg">
<path d="M15.2048 0.344116C7.33452 0.344116 0.934937 6.7437 0.934937 14.614C0.934937 22.2855 14.1316 37.4696 14.6881 38.1056C14.8073 38.2646 15.0061 38.3441 15.2048 38.3441C15.4036 38.3441 15.6023 38.2646 15.7215 38.1056C16.278 37.4696 29.4747 22.2855 29.4747 14.614C29.4747 6.7437 23.0751 0.344116 15.2048 0.344116ZM15.2048 36.5554C12.7006 33.614 2.32615 20.9341 2.32615 14.614C2.32615 7.49893 8.08975 1.73533 15.2048 1.73533C22.3199 1.73533 28.0835 7.49893 28.0835 14.614C28.0835 20.9341 17.709 33.614 15.2048 36.5554Z" fill="#956B17"/>
<path d="M20.571 12.388H17.7091V9.52612C17.7091 9.12863 17.3911 8.81064 16.9936 8.81064H13.4162C13.0187 8.81064 12.7007 9.12863 12.7007 9.52612V12.388H9.83877C9.44128 12.388 9.12329 12.706 9.12329 13.1035V16.6809C9.12329 17.0784 9.44128 17.3964 9.83877 17.3964H12.7007V20.2583C12.7007 20.6558 13.0187 20.9738 13.4162 20.9738H16.9936C17.3911 20.9738 17.7091 20.6558 17.7091 20.2583V17.3964H20.571C20.9685 17.3964 21.2865 17.0784 21.2865 16.6809V13.1035C21.2865 12.706 20.9685 12.388 20.571 12.388ZM19.8555 15.9655H16.9936C16.5961 16.0052 16.2781 16.3232 16.2781 16.6809V19.5429H14.0919V16.6809C14.0919 16.2834 13.7739 15.9655 13.3764 15.9655H10.5145V13.7793H13.3764C13.7739 13.7793 14.0919 13.4613 14.0919 13.0638V10.2019H16.2781V13.0638C16.2781 13.4613 16.5961 13.7793 16.9936 13.7793H19.8555V15.9655Z" fill="#956B17"/>
</svg>
