<svg width="26" height="25" viewBox="0 0 26 25" fill="none" xmlns="http://www.w3.org/2000/svg">
<path d="M24.9167 12.6609H1.08333C0.485331 12.6609 0 12.3867 0 12.0488C0 11.711 0.485331 11.4368 1.08333 11.4368H24.9167C25.5147 11.4368 26 11.711 26 12.0488C26 12.3867 25.5147 12.6609 24.9167 12.6609Z" fill="white"/>
<path d="M24.9167 4.67458H1.08333C0.485331 4.67458 0 4.40037 0 4.06251C0 3.72465 0.485331 3.45044 1.08333 3.45044H24.9167C25.5147 3.45044 26 3.72465 26 4.06251C26 4.40037 25.5147 4.67458 24.9167 4.67458Z" fill="white"/>
<path d="M24.9167 20.6468H1.08333C0.485331 20.6468 0 20.3725 0 20.0347C0 19.6968 0.485331 19.4226 1.08333 19.4226H24.9167C25.5147 19.4226 26 19.6968 26 20.0347C26 20.3725 25.5147 20.6468 24.9167 20.6468Z" fill="white"/>
</svg>
