<svg width="13" height="14" viewBox="0 0 13 14" fill="none" xmlns="http://www.w3.org/2000/svg">
<path d="M0.141138 12.5011C0.265247 12.5568 3.21868 13.8663 6.5 13.8663C10.055 13.8663 12.7553 12.5525 12.8685 12.4966C12.9086 12.4767 12.9418 12.4487 12.9648 12.4152C12.9879 12.3817 13 12.3438 13 12.3053C13 10.5049 12.3295 8.85729 11.1119 7.66589C10.2602 6.83245 9.19158 6.26437 8.01294 6.00285C8.73443 5.72016 9.31767 5.24381 9.66684 4.65207C10.016 4.06034 10.1104 3.38841 9.93436 2.74669C9.75837 2.10497 9.3225 1.53162 8.69839 1.12084C8.07427 0.710068 7.29902 0.486298 6.5 0.486298C5.70099 0.486298 4.92573 0.710068 4.30161 1.12084C3.6775 1.53162 3.24163 2.10497 3.06564 2.74669C2.88964 3.38841 2.98398 4.06034 3.33316 4.65207C3.68233 5.24381 4.26557 5.72016 4.98706 6.00285C3.80842 6.26437 2.73978 6.83253 1.88808 7.66589C0.67055 8.85729 0 10.5049 0 12.3053C3.94016e-07 12.3454 0.0131072 12.3847 0.0379428 12.4192C0.0627785 12.4536 0.0984257 12.4819 0.141138 12.5011ZM3.52083 3.38557C3.52083 2.90043 3.69556 2.42618 4.02291 2.02279C4.35027 1.61941 4.81555 1.30501 5.35992 1.11935C5.90429 0.933696 6.5033 0.885119 7.08121 0.979767C7.65911 1.07441 8.18995 1.30803 8.60659 1.65108C9.02323 1.99413 9.30697 2.4312 9.42192 2.90703C9.53688 3.38285 9.47788 3.87605 9.25239 4.32427C9.02691 4.77248 8.64506 5.15558 8.15514 5.42511C7.66521 5.69464 7.08922 5.83851 6.5 5.83851C5.71015 5.83777 4.95291 5.5791 4.3944 5.11924C3.83589 4.65939 3.52173 4.0359 3.52083 3.38557ZM2.30252 7.95302C3.40234 6.87705 4.89288 6.28449 6.5 6.28449C8.10713 6.28449 9.59766 6.87705 10.6975 7.95302C11.8039 9.0356 12.4259 10.5308 12.4571 12.1753C11.8776 12.4336 9.46928 13.4203 6.5 13.4203C3.75409 13.4203 1.16797 12.4277 0.543021 12.17C0.575521 10.5276 1.19732 9.03446 2.30252 7.95302Z" fill="#333333"/>
</svg>
