<svg width="24" height="24" viewBox="0 0 24 24" fill="none" xmlns="http://www.w3.org/2000/svg">
<path d="M11.29 10.71C11.3851 10.801 11.4972 10.8724 11.62 10.92C11.7397 10.9729 11.8691 11.0002 12 11.0002C12.1309 11.0002 12.2603 10.9729 12.38 10.92C12.5028 10.8724 12.6149 10.801 12.71 10.71L15 8.46C15.1936 8.26639 15.3024 8.0038 15.3024 7.73C15.3024 7.4562 15.1936 7.19361 15 7C14.8064 6.80639 14.5438 6.69762 14.27 6.69762C13.9962 6.69762 13.7336 6.80639 13.54 7L13 7.59V4C13 3.73478 12.8946 3.48043 12.7071 3.29289C12.5196 3.10536 12.2652 3 12 3C11.7348 3 11.4804 3.10536 11.2929 3.29289C11.1054 3.48043 11 3.73478 11 4V7.59L10.46 7C10.2664 6.80639 10.0038 6.69762 9.73 6.69762C9.4562 6.69762 9.19361 6.80639 9 7C8.80639 7.19361 8.69762 7.4562 8.69762 7.73C8.69762 8.0038 8.80639 8.26639 9 8.46L11.29 10.71ZM20 9H17C16.7348 9 16.4804 9.10536 16.2929 9.29289C16.1054 9.48043 16 9.73478 16 10C16 10.2652 16.1054 10.5196 16.2929 10.7071C16.4804 10.8946 16.7348 11 17 11H20C20.2652 11 20.5196 11.1054 20.7071 11.2929C20.8946 11.4804 21 11.7348 21 12V20C21 20.2652 20.8946 20.5196 20.7071 20.7071C20.5196 20.8946 20.2652 21 20 21H4C3.73478 21 3.48043 20.8946 3.29289 20.7071C3.10536 20.5196 3 20.2652 3 20V12C3 11.7348 3.10536 11.4804 3.29289 11.2929C3.48043 11.1054 3.73478 11 4 11H7C7.26522 11 7.51957 10.8946 7.70711 10.7071C7.89464 10.5196 8 10.2652 8 10C8 9.73478 7.89464 9.48043 7.70711 9.29289C7.51957 9.10536 7.26522 9 7 9H4C3.20435 9 2.44129 9.31607 1.87868 9.87868C1.31607 10.4413 1 11.2044 1 12V20C1 20.7956 1.31607 21.5587 1.87868 22.1213C2.44129 22.6839 3.20435 23 4 23H20C20.7956 23 21.5587 22.6839 22.1213 22.1213C22.6839 21.5587 23 20.7956 23 20V12C23 11.2044 22.6839 10.4413 22.1213 9.87868C21.5587 9.31607 20.7956 9 20 9Z" fill="#C68311"/>
<path d="M14.5996 16C14.5996 17.3807 13.4803 18.5 12.0996 18.5C10.7189 18.5 9.59961 17.3807 9.59961 16C9.59961 14.6193 10.7189 13.5 12.0996 13.5C13.4803 13.5 14.5996 14.6193 14.5996 16Z" fill="#C68311"/>
<path d="M19 16C19 16.5523 18.5523 17 18 17C17.4477 17 17 16.5523 17 16C17 15.4477 17.4477 15 18 15C18.5523 15 19 15.4477 19 16Z" fill="#C68311"/>
<path d="M7 16C7 16.5523 6.55228 17 6 17C5.44772 17 5 16.5523 5 16C5 15.4477 5.44772 15 6 15C6.55228 15 7 15.4477 7 16Z" fill="#C68311"/>
</svg>
