<svg width="24" height="24" viewBox="0 0 24 24" fill="none" xmlns="http://www.w3.org/2000/svg">
<path d="M10.46 5.9999L11 5.4099V8.9999C11 9.26511 11.1054 9.51947 11.2929 9.707C11.4804 9.89454 11.7348 9.9999 12 9.9999C12.2652 9.9999 12.5196 9.89454 12.7071 9.707C12.8946 9.51947 13 9.26511 13 8.9999V5.4099L13.54 5.9599C13.6308 6.06242 13.7416 6.14521 13.8657 6.20313C13.9898 6.26105 14.1244 6.29287 14.2613 6.29662C14.3982 6.30037 14.5344 6.27597 14.6615 6.22493C14.7885 6.17389 14.9038 6.09729 15 5.9999C15.0937 5.90693 15.1681 5.79633 15.2189 5.67447C15.2697 5.55261 15.2958 5.42191 15.2958 5.2899C15.2958 5.15788 15.2697 5.02718 15.2189 4.90532C15.1681 4.78346 15.0937 4.67286 15 4.5799L12.71 2.2899C12.6149 2.19886 12.5028 2.12749 12.38 2.0799C12.1365 1.97988 11.8635 1.97988 11.62 2.0799C11.4972 2.12749 11.3851 2.19886 11.29 2.2899L9 4.5399C8.80639 4.7335 8.69762 4.99609 8.69762 5.2699C8.69762 5.5437 8.80639 5.80629 9 5.9999C9.19361 6.1935 9.4562 6.30227 9.73 6.30227C10.0038 6.30227 10.2664 6.1935 10.46 5.9999ZM20 7.9999H16C15.7348 7.9999 15.4804 8.10525 15.2929 8.29279C15.1054 8.48033 15 8.73468 15 8.9999C15 9.26511 15.1054 9.51947 15.2929 9.707C15.4804 9.89454 15.7348 9.9999 16 9.9999H20C20.2652 9.9999 20.5196 10.1053 20.7071 10.2928C20.8946 10.4803 21 10.7347 21 10.9999V18.9999C21 19.2651 20.8946 19.5195 20.7071 19.707C20.5196 19.8945 20.2652 19.9999 20 19.9999H4C3.73478 19.9999 3.48043 19.8945 3.29289 19.707C3.10536 19.5195 3 19.2651 3 18.9999V10.9999C3 10.7347 3.10536 10.4803 3.29289 10.2928C3.48043 10.1053 3.73478 9.9999 4 9.9999H8C8.26522 9.9999 8.51957 9.89454 8.70711 9.707C8.89464 9.51947 9 9.26511 9 8.9999C9 8.73468 8.89464 8.48033 8.70711 8.29279C8.51957 8.10525 8.26522 7.9999 8 7.9999H4C3.20435 7.9999 2.44129 8.31597 1.87868 8.87858C1.31607 9.44118 1 10.2042 1 10.9999V18.9999C1 19.7955 1.31607 20.5586 1.87868 21.1212C2.44129 21.6838 3.20435 21.9999 4 21.9999H20C20.7956 21.9999 21.5587 21.6838 22.1213 21.1212C22.6839 20.5586 23 19.7955 23 18.9999V10.9999C23 10.2042 22.6839 9.44118 22.1213 8.87858C21.5587 8.31597 20.7956 7.9999 20 7.9999Z" fill="#DC1C26"/>
<circle cx="12.0996" cy="15" r="2.5" fill="#DC1C26"/>
<circle cx="18" cy="15" r="1" fill="#DC1C26"/>
<circle cx="6" cy="15" r="1" fill="#DC1C26"/>
</svg>
