<svg width="28" height="18" viewBox="0 0 28 18" fill="none" xmlns="http://www.w3.org/2000/svg">
<rect x="4.86621" y="10" width="4.5" height="1.2" rx="0.6" transform="rotate(119.999 4.86621 10)" fill="black"/>
<rect x="8.16748" y="12.4197" width="4.5" height="1.2" rx="0.6" transform="rotate(108.834 8.16748 12.4197)" fill="black"/>
<rect x="11.7371" y="13.2" width="4.5" height="1.2" rx="0.6" transform="rotate(99.83 11.7371 13.2)" fill="black"/>
<rect x="15.7002" y="13.0158" width="4.5" height="1.2" rx="0.6" transform="rotate(85.37 15.7002 13.0158)" fill="black"/>
<rect x="19.199" y="12" width="4.5" height="1.2" rx="0.6" transform="rotate(67.24 19.199 12)" fill="black"/>
<rect x="23.1892" y="10" width="4.5" height="1.2" rx="0.6" transform="rotate(66.1601 23.1892 10)" fill="black"/>
<path fill-rule="evenodd" clip-rule="evenodd" d="M13.6526 0C18.0387 0 22.6397 2.24905 26.9828 6.56577C27.3698 6.9648 27.3698 7.5452 26.9828 7.94422C22.6397 12.2609 18.0387 14.51 13.6526 14.51C9.26659 14.51 4.66554 12.261 0.322503 7.9805C-0.107501 7.58147 -0.107501 6.9648 0.322503 6.56577C4.66554 2.24905 9.26659 0 13.6526 0ZM1.87061 7.25491C5.74064 10.9912 9.91168 13.0589 13.6527 13.0589C17.3938 13.0589 21.5648 10.9912 25.4348 7.25491C21.5648 3.51858 17.3938 1.45091 13.6527 1.45091C9.91168 1.45091 5.74064 3.51858 1.87061 7.25491Z" fill="#1D1D1F"/>
</svg>
