<svg width="28" height="21" viewBox="0 0 28 21" fill="none" xmlns="http://www.w3.org/2000/svg">
<path fill-rule="evenodd" clip-rule="evenodd" d="M26.9828 9.47205C22.6397 4.55949 18.0387 2 13.6526 2C9.26659 2 4.66554 4.55949 0.322503 9.47205C-0.107501 9.92615 -0.107501 10.6279 0.322503 11.0821C4.66554 15.9533 9.26659 18.5128 13.6526 18.5128C18.0387 18.5128 22.6397 15.9533 26.9828 11.0408C27.3698 10.5867 27.3698 9.92615 26.9828 9.47205ZM13.6528 16.8614C9.91174 16.8614 5.7407 14.5084 1.87066 10.2563C5.7407 6.00426 9.91174 3.65118 13.6528 3.65118C17.3938 3.65118 21.5648 6.00426 25.4349 10.2563C21.5648 14.5084 17.3938 16.8614 13.6528 16.8614ZM13.6525 5.30261C10.8145 5.30261 8.49243 7.53184 8.49243 10.2565C8.49243 12.9811 10.8145 15.2103 13.6525 15.2103C16.4905 15.2103 18.8125 12.9811 18.8125 10.2565C18.8125 7.53184 16.4905 5.30261 13.6525 5.30261ZM13.6524 13.5591C11.7604 13.5591 10.2124 12.073 10.2124 10.2565C10.2124 8.44013 11.7604 6.95398 13.6524 6.95398C15.5444 6.95398 17.0924 8.44013 17.0924 10.2565C17.0924 12.073 15.5444 13.5591 13.6524 13.5591Z" fill="#404040"/>
<rect x="20.7" y="0.5" width="1.5" height="23.5" rx="0.75" transform="rotate(36.78 20.7 0.5)" fill="#404040"/>
</svg>
