<svg width="28" height="18" viewBox="0 0 28 18" fill="none" xmlns="http://www.w3.org/2000/svg">
<path fill-rule="evenodd" clip-rule="evenodd" d="M27.3961 8.15918C23.053 3.24662 18.452 0.687134 14.066 0.687134C9.67992 0.687134 5.07887 3.24662 0.735833 8.15918C0.305829 8.61329 0.305829 9.31508 0.735833 9.76918C5.07887 14.6405 9.67992 17.2 14.066 17.2C18.452 17.2 23.053 14.6405 27.3961 9.7279C27.7831 9.2738 27.7831 8.61329 27.3961 8.15918ZM14.0661 15.5486C10.3251 15.5486 6.15403 13.1955 2.28399 8.94345C6.15403 4.69139 10.3251 2.33832 14.0661 2.33832C17.8071 2.33832 21.9782 4.69139 25.8482 8.94345C21.9782 13.1955 17.8071 15.5486 14.0661 15.5486ZM14.0658 3.98975C11.2278 3.98975 8.90576 6.21898 8.90576 8.94359C8.90576 11.6682 11.2278 13.8974 14.0658 13.8974C16.9038 13.8974 19.2259 11.6682 19.2259 8.94359C19.2259 6.21898 16.9038 3.98975 14.0658 3.98975ZM14.0657 12.2462C12.1737 12.2462 10.6257 10.7601 10.6257 8.94368C10.6257 7.12727 12.1737 5.64111 14.0657 5.64111C15.9578 5.64111 17.5058 7.12727 17.5058 8.94368C17.5058 10.7601 15.9578 12.2462 14.0657 12.2462Z" fill="black"/>
</svg>
