<svg width="13" height="12" viewBox="0 0 13 12" fill="none" xmlns="http://www.w3.org/2000/svg">
<path d="M13 4.36119C13 4.72422 12.9389 5.08376 12.8168 5.43083C12.2143 7.95377 7.00717 11.0259 6.786 11.1546C6.73989 11.182 6.68722 11.195 6.63482 11.195C6.58206 11.195 6.52966 11.1821 6.48328 11.1546C6.37766 11.0931 3.88031 9.62317 2.10915 7.88154C2.0018 7.77561 2.00627 7.60755 2.12054 7.50791C2.23482 7.40809 2.41434 7.41225 2.52232 7.51868C4.00078 8.97309 6.06391 10.2688 6.63491 10.6167C7.49662 10.0915 11.7654 7.39782 12.2698 5.29138C12.3797 4.97274 12.4318 4.66887 12.4318 4.36178C12.4318 3.29324 11.807 2.30788 10.8015 1.78876C10.3364 1.55102 9.81044 1.42463 9.27999 1.42463C8.33891 1.42463 7.45443 1.81151 6.85289 2.48732C6.79849 2.54775 6.71884 2.58315 6.63428 2.58315C6.55026 2.58315 6.46952 2.54877 6.41575 2.48732C5.81285 1.81202 4.92746 1.42463 3.98665 1.42463C3.45702 1.42463 2.93076 1.55051 2.46427 1.78876C1.45914 2.30678 0.834547 3.29316 0.834547 4.36119C0.834547 4.66769 0.887037 4.97155 0.990467 5.26566C1.05681 5.54084 1.18912 5.82229 1.3681 6.11682H3.27003L3.87876 5.16762C3.9287 5.08937 4.01891 5.04073 4.11733 5.0392C4.20527 5.02859 4.30715 5.08257 4.36091 5.1599L5.35694 6.58867L6.46669 3.79488C6.50779 3.69098 6.61405 3.62172 6.73279 3.62172H6.73333C6.85189 3.62172 6.95842 3.69048 6.99942 3.79437L7.92884 6.11674H9.57415C9.73125 6.11674 9.85819 6.23557 9.85819 6.38139C9.85819 6.52815 9.73116 6.64596 9.57415 6.64596H7.73072C7.61199 6.64596 7.506 6.57772 7.46381 6.47442L6.73443 4.6474L5.69457 7.26838C5.65766 7.362 5.56608 7.42871 5.45928 7.43898C5.44843 7.44009 5.43823 7.44102 5.42793 7.44102C5.33252 7.44102 5.2423 7.39553 5.18936 7.32007L4.1331 5.80473L3.67554 6.51796C3.62442 6.59758 3.53184 6.64715 3.43196 6.64715H0.284136C0.127305 6.64723 0 6.5284 0 6.38258C0 6.23583 0.127305 6.11801 0.284136 6.11801H0.72164C0.592603 5.87093 0.496646 5.63191 0.443063 5.40605C0.328515 5.08427 0.266366 4.7243 0.266366 4.3617C0.266366 3.10116 1.00359 1.93798 2.18989 1.32549C2.74085 1.04387 3.36152 0.895752 3.98656 0.895752C4.98815 0.895752 5.93587 1.26735 6.63364 1.92457C7.33113 1.26735 8.27776 0.895752 9.27935 0.895752C9.90585 0.895752 10.5251 1.04387 11.0761 1.32549C12.2648 1.93722 13 3.10116 13 4.36119Z" fill="#333333"/>
</svg>
