<svg width="15" height="14" viewBox="0 0 15 14" fill="none" xmlns="http://www.w3.org/2000/svg">
<g clip-path="url(#clip0)">
<path d="M5.03906 9.05113H12.4493C12.6328 9.05113 12.7938 8.92979 12.8435 8.75356L14.4842 3.01126C14.5194 2.88747 14.4953 2.75449 14.4176 2.65163C14.3399 2.54909 14.219 2.48853 14.09 2.48853H4.09218L3.79898 1.16919C3.75732 0.981308 3.5907 0.8479 3.39844 0.8479H0.910156C0.683502 0.8479 0.5 1.0314 0.5 1.25806C0.5 1.48482 0.683502 1.66821 0.910156 1.66821H3.06924L4.5504 8.33325C4.11461 8.52274 3.80859 8.9565 3.80859 9.46129C3.80859 10.1398 4.3606 10.6918 5.03906 10.6918H12.4493C12.6761 10.6918 12.8595 10.5084 12.8595 10.2816C12.8595 10.0549 12.6761 9.87144 12.4493 9.87144H5.03906C4.81316 9.87144 4.62891 9.68762 4.62891 9.46129C4.62891 9.23495 4.81316 9.05113 5.03906 9.05113Z" fill="#FFFEFE"/>
<path d="M4.62891 11.9219C4.62891 12.6004 5.18091 13.1523 5.85948 13.1523C6.53795 13.1523 7.08995 12.6004 7.08995 11.9219C7.08995 11.2434 6.53795 10.6914 5.85948 10.6914C5.18091 10.6914 4.62891 11.2434 4.62891 11.9219Z" fill="#FFFEFE"/>
<path d="M10.3984 11.9219C10.3984 12.6004 10.9504 13.1523 11.6289 13.1523C12.3075 13.1523 12.8594 12.6004 12.8594 11.9219C12.8594 11.2434 12.3075 10.6914 11.6289 10.6914C10.9504 10.6914 10.3984 11.2434 10.3984 11.9219Z" fill="#FFFEFE"/>
</g>
<defs>
<clipPath id="clip0">
<rect width="14" height="14" fill="white" transform="translate(0.5)"/>
</clipPath>
</defs>
</svg>
