<svg width="15" height="15" viewBox="0 0 15 15" fill="none" xmlns="http://www.w3.org/2000/svg">
<g clip-path="url(#clip0)">
<path d="M13.9618 11.9217L12.9451 6.06335C12.7346 4.85081 11.7039 3.97074 10.4943 3.97074H9.05585C9.27333 3.65606 9.40155 3.27307 9.40155 2.85993C9.40158 1.79265 8.54849 0.924316 7.5 0.924316C6.45152 0.924316 5.59845 1.79265 5.59845 2.85996C5.59845 3.2731 5.72667 3.65609 5.94416 3.97077H4.50573C3.29613 3.97077 2.26542 4.85083 2.05495 6.06337L1.03821 11.9217C0.909879 12.6611 1.1082 13.4152 1.58226 13.9905C2.05635 14.5658 2.7513 14.8957 3.48901 14.8957H11.511C12.2488 14.8957 12.9437 14.5658 13.4178 13.9905C13.8919 13.4152 14.0901 12.6611 13.9618 11.9217ZM7.5 1.74915C8.10172 1.74915 8.59125 2.24745 8.59125 2.85996C8.59125 3.47246 8.10169 3.97077 7.5 3.97077C6.89831 3.97077 6.40876 3.47246 6.40876 2.85996C6.40876 2.24745 6.89829 1.74915 7.5 1.74915ZM12.7969 13.4604C12.4772 13.8484 12.0085 14.0709 11.511 14.0709H3.48901C2.99152 14.0709 2.52282 13.8484 2.20312 13.4604C1.88341 13.0724 1.74965 12.5639 1.83621 12.0652L2.85295 6.20688C2.9949 5.38914 3.69001 4.79558 4.50576 4.79558H10.4943C11.3101 4.79558 12.0052 5.38909 12.1471 6.20683L13.1639 12.0651C13.2504 12.5639 13.1166 13.0724 12.7969 13.4604Z" fill="#4F4F4F"/>
<path d="M6.04394 9.43316L7.1535 8.36524C7.32357 8.2016 7.31894 7.94051 7.14321 7.7821C6.96746 7.62364 6.68715 7.628 6.51708 7.79165L5.27621 8.98596V8.07845C5.27621 7.85067 5.07796 7.66602 4.83342 7.66602C4.58888 7.66602 4.39062 7.85067 4.39062 8.07845V10.7879C4.39062 11.0157 4.58888 11.2003 4.83342 11.2003C5.07796 11.2003 5.27621 11.0157 5.27621 10.7879V9.88038L6.51708 11.0747C6.60392 11.1583 6.71955 11.2003 6.83533 11.2003C6.94619 11.2003 7.05723 11.1618 7.14321 11.0843C7.31894 10.9259 7.32351 10.6648 7.1535 10.5011L6.04394 9.43316Z" fill="#4F4F4F"/>
<path d="M10.1666 9.1374H9.50192C9.25738 9.1374 9.05913 9.32206 9.05913 9.54983C9.05913 9.7776 9.25738 9.96226 9.50192 9.96226H9.71652C9.67434 10.1965 9.45511 10.3756 9.19176 10.3756C8.89838 10.3756 8.6597 10.1533 8.6597 9.88004V8.98658C8.6597 8.71332 8.89838 8.491 9.19176 8.491C9.35682 8.491 9.50983 8.56064 9.61164 8.68213C9.76208 8.86163 10.0403 8.89361 10.2331 8.75346C10.4259 8.61328 10.4602 8.35413 10.3097 8.1746C10.039 7.85151 9.63148 7.6662 9.19179 7.6662C8.41012 7.6662 7.77417 8.25854 7.77417 8.98661V9.88007C7.77417 10.6081 8.41012 11.2005 9.19179 11.2005C9.97346 11.2005 10.6094 10.6081 10.6094 9.88007V9.54988C10.6094 9.32206 10.4112 9.1374 10.1666 9.1374Z" fill="#4F4F4F"/>
</g>
<defs>
<clipPath id="clip0">
<rect width="15" height="13.9714" fill="white" transform="translate(0 0.924316)"/>
</clipPath>
</defs>
</svg>
