<svg width="18" height="18" viewBox="0 0 18 18" fill="none" xmlns="http://www.w3.org/2000/svg">
<path d="M15.3672 15.3672C18.8776 11.8568 18.8776 6.14321 15.3672 2.6328C11.8568 -0.877601 6.14321 -0.877601 2.6328 2.6328C-0.877601 6.14321 -0.877601 11.8568 2.6328 15.3672C6.14321 18.8776 11.8568 18.8776 15.3672 15.3672ZM3.26805 3.26805C6.42962 0.106487 11.5704 0.106487 14.7319 3.26805C17.8935 6.42962 17.8935 11.5704 14.7319 14.7319C11.5704 17.8935 6.42962 17.8935 3.26805 14.7319C0.106487 11.5704 0.110159 6.42962 3.26805 3.26805Z" fill="white"/>
<path d="M9.00004 12.3707C9.12489 12.3707 9.23504 12.3193 9.3195 12.2385C9.40028 12.1577 9.45169 12.0439 9.45169 11.919V9.4478H11.9229C12.0478 9.4478 12.1579 9.39639 12.2424 9.31561C12.3232 9.23483 12.3746 9.121 12.3746 8.99615C12.3746 8.74646 12.1726 8.5445 11.9266 8.54817H9.45536V6.07694C9.45536 5.82724 9.2534 5.62528 9.00738 5.62896C8.75769 5.62896 8.55573 5.83091 8.5594 6.07694V8.54817H6.08817C5.83847 8.54817 5.63651 8.75013 5.64019 8.99615C5.64019 9.24584 5.84214 9.4478 6.08817 9.44413H8.5594V11.9154C8.54839 12.1687 8.75034 12.3707 9.00004 12.3707Z" fill="white"/>
</svg>
