<svg width="35" height="35" viewBox="0 0 35 35" fill="none" xmlns="http://www.w3.org/2000/svg">
<path d="M17.5 35C27.165 35 35 27.165 35 17.5C35 7.83502 27.165 0 17.5 0C7.83502 0 0 7.83502 0 17.5C0 27.165 7.83502 35 17.5 35Z" fill="#A1B6BB"/>
<path d="M25.1095 9.52176C23.4571 7.86938 20.7783 7.86938 19.126 9.52176L14.1395 14.5082L9.15335 19.4947C7.50097 21.1471 7.50097 23.826 9.15335 25.4783C10.8057 27.1306 13.4846 27.1306 15.137 25.4783L20.1235 20.4918L25.1099 15.5053C26.7619 13.853 26.7619 11.1741 25.1095 9.52176Z" fill="white"/>
<path d="M25.1097 9.52176C23.4573 7.86938 20.7784 7.86938 19.1261 9.52176L14.1396 14.5082L20.1233 20.4918L25.1098 15.5054C26.7621 13.853 26.7621 11.1741 25.1097 9.52176Z" fill="#FC611F"/>
<path d="M25.0338 9.59839L17.1318 17.5L19.46 19.8281L24.4465 14.8417C25.8703 13.4179 26.0638 11.2329 25.0338 9.59839Z" fill="#E34E10"/>
<path d="M17.1311 17.5L9.22949 25.4016C10.8644 26.4316 13.0491 26.2381 14.4732 24.8143L19.4597 19.8278L17.1311 17.5Z" fill="#C7DADF"/>
</svg>
