<svg width="31" height="31" viewBox="0 0 31 31" fill="none" xmlns="http://www.w3.org/2000/svg">
<g clip-path="url(#clip0_359_385)">
<path d="M15.3508 28.8786C12.5445 28.8786 9.80113 28.0464 7.46773 26.4873C5.13433 24.9281 3.31566 22.7121 2.24172 20.1194C1.16777 17.5266 0.886776 14.6736 1.43427 11.9212C1.98176 9.16878 3.33315 6.64051 5.31755 4.65612C7.30194 2.67173 9.83021 1.32034 12.5826 0.772846C15.3351 0.225353 18.1881 0.506346 20.7808 1.58029C23.3735 2.65424 25.5896 4.4729 27.1487 6.8063C28.7078 9.1397 29.54 11.883 29.54 14.6894C29.5357 18.4513 28.0394 22.0579 25.3794 24.7179C22.7193 27.378 19.1127 28.8743 15.3508 28.8786ZM15.3508 1.31102C12.7048 1.31102 10.1183 2.09564 7.91819 3.56568C5.71813 5.03571 4.00339 7.12513 2.99081 9.56971C1.97823 12.0143 1.71329 14.7042 2.2295 17.2994C2.74571 19.8945 4.01988 22.2783 5.89088 24.1493C7.76188 26.0203 10.1457 27.2945 12.7408 27.8107C15.336 28.3269 18.0259 28.062 20.4705 27.0494C22.9151 26.0368 25.0045 24.3221 26.4745 22.122C27.9446 19.922 28.7292 17.3354 28.7292 14.6894C28.7252 11.1424 27.3145 7.74191 24.8064 5.23384C22.2983 2.72576 18.8978 1.31499 15.3508 1.31102Z" fill="white"/>
<path d="M15.3508 26.642C12.9868 26.642 10.6759 25.9409 8.71028 24.6276C6.74469 23.3142 5.2127 21.4475 4.30803 19.2634C3.40337 17.0794 3.16667 14.6761 3.62786 12.3576C4.08906 10.039 5.22743 7.90924 6.89902 6.23765C8.57062 4.56605 10.7004 3.42768 13.0189 2.96649C15.3375 2.50529 17.7408 2.742 19.9248 3.64666C22.1089 4.55132 23.9756 6.08331 25.289 8.0489C26.6023 10.0145 27.3033 12.3254 27.3033 14.6894C27.2998 17.8583 26.0394 20.8964 23.7986 23.1372C21.5578 25.378 18.5197 26.6384 15.3508 26.642ZM15.3508 3.54763C13.1471 3.54763 10.993 4.20109 9.16074 5.42536C7.32848 6.64963 5.90042 8.38973 5.05713 10.4256C4.21383 12.4615 3.99319 14.7017 4.4231 16.863C4.853 19.0243 5.91415 21.0096 7.47235 22.5678C9.03056 24.126 11.0158 25.1871 13.1771 25.6171C15.3384 26.047 17.5786 25.8263 19.6145 24.983C21.6504 24.1397 23.3905 22.7117 24.6148 20.8794C25.8391 19.0472 26.4925 16.893 26.4925 14.6894C26.4894 11.7353 25.3146 8.90307 23.2258 6.81413C21.137 4.72519 18.3049 3.55015 15.3508 3.54682V3.54763Z" fill="white"/>
<path d="M10.7414 7.10993C10.6702 7.11 10.6002 7.0913 10.5385 7.05571C10.4768 7.02013 10.4255 6.96891 10.3899 6.90722L10.2253 6.62344C10.1715 6.53028 10.157 6.41957 10.1849 6.31568C10.2127 6.21178 10.2807 6.12322 10.3739 6.06946C10.4671 6.0157 10.5778 6.00115 10.6817 6.02901C10.7855 6.05688 10.8741 6.12487 10.9279 6.21804L11.0921 6.50182C11.1276 6.56342 11.1464 6.63329 11.1464 6.70442C11.1464 6.77555 11.1277 6.84543 11.0922 6.90704C11.0566 6.96866 11.0055 7.01985 10.9439 7.05546C10.8824 7.09107 10.8125 7.10985 10.7414 7.10993Z" fill="white"/>
<path d="M7.36587 10.4849C7.29469 10.4851 7.22474 10.4663 7.16317 10.4306L6.87938 10.2684C6.78622 10.2147 6.71822 10.1261 6.69036 10.0222C6.66249 9.91831 6.67704 9.8076 6.7308 9.71444C6.78456 9.62127 6.87313 9.55328 6.97702 9.52541C7.08092 9.49755 7.19162 9.5121 7.28479 9.56586L7.56857 9.72802C7.64606 9.77255 7.70666 9.84144 7.74094 9.92397C7.77523 10.0065 7.78128 10.0981 7.75816 10.1844C7.73504 10.2707 7.68405 10.347 7.6131 10.4013C7.54216 10.4557 7.45524 10.4851 7.36587 10.4849Z" fill="white"/>
<path d="M19.9602 7.10992C19.889 7.10985 19.8192 7.09106 19.7576 7.05545C19.696 7.01984 19.6449 6.96866 19.6094 6.90704C19.5739 6.84542 19.5552 6.77554 19.5552 6.70441C19.5552 6.63328 19.5739 6.56341 19.6095 6.50181L19.7741 6.21803C19.8282 6.12568 19.9167 6.05849 20.0202 6.03112C20.1237 6.00376 20.2338 6.01844 20.3265 6.07197C20.4192 6.1255 20.487 6.21353 20.5151 6.31684C20.5431 6.42016 20.5292 6.53037 20.4762 6.62344L20.3121 6.90722C20.2764 6.96897 20.2251 7.02022 20.1633 7.05581C20.1015 7.0914 20.0315 7.11006 19.9602 7.10992Z" fill="white"/>
<path d="M23.3361 10.4849C23.2468 10.4851 23.1599 10.4557 23.0889 10.4013C23.018 10.347 22.967 10.2707 22.9439 10.1844C22.9207 10.0981 22.9268 10.0065 22.9611 9.92399C22.9954 9.84145 23.056 9.77257 23.1334 9.72803L23.4172 9.56587C23.4634 9.53925 23.5143 9.52198 23.5671 9.51504C23.6199 9.5081 23.6735 9.51163 23.725 9.52543C23.7764 9.53922 23.8247 9.56302 23.8669 9.59545C23.9091 9.62788 23.9446 9.66832 23.9712 9.71445C23.9978 9.76058 24.0151 9.81151 24.022 9.86431C24.029 9.91712 24.0255 9.97077 24.0117 10.0222C23.9979 10.0737 23.9741 10.1219 23.9416 10.1641C23.9092 10.2064 23.8688 10.2418 23.8226 10.2684L23.5388 10.4306C23.4772 10.4662 23.4073 10.4849 23.3361 10.4849Z" fill="white"/>
<path d="M10.5763 23.3643C10.5051 23.3643 10.4352 23.3455 10.3736 23.3099C10.312 23.2744 10.2608 23.2232 10.2252 23.1615C10.1896 23.0999 10.1709 23.03 10.1709 22.9588C10.1709 22.8877 10.1896 22.8178 10.2252 22.7561L10.3898 22.4724C10.4162 22.4259 10.4516 22.3851 10.4938 22.3523C10.5361 22.3196 10.5844 22.2955 10.636 22.2815C10.6876 22.2675 10.7415 22.2638 10.7945 22.2707C10.8475 22.2776 10.8986 22.2949 10.9449 22.3216C10.9912 22.3484 11.0318 22.384 11.0643 22.4265C11.0968 22.469 11.1205 22.5174 11.1342 22.5691C11.1478 22.6208 11.1511 22.6747 11.1439 22.7277C11.1367 22.7806 11.119 22.8316 11.092 22.8778L10.9278 23.1616C10.8922 23.2232 10.8409 23.2745 10.7792 23.31C10.7175 23.3456 10.6475 23.3643 10.5763 23.3643Z" fill="white"/>
<path d="M7.08166 19.8692C6.99242 19.8692 6.90567 19.8398 6.83487 19.7855C6.76408 19.7311 6.71318 19.655 6.69008 19.5688C6.66699 19.4826 6.67298 19.3911 6.70713 19.3087C6.74127 19.2263 6.80167 19.1574 6.87895 19.1127L7.16274 18.9482C7.2558 18.8952 7.36602 18.8813 7.46933 18.9093C7.57265 18.9374 7.66067 19.0052 7.7142 19.0979C7.76773 19.1906 7.78241 19.3007 7.75505 19.4042C7.72769 19.5077 7.6605 19.5962 7.56814 19.6503L7.28436 19.8145C7.22285 19.8504 7.15289 19.8693 7.08166 19.8692Z" fill="white"/>
<path d="M20.1257 23.3642C20.0544 23.3643 19.9844 23.3456 19.9227 23.31C19.861 23.2744 19.8098 23.2232 19.7742 23.1615L19.6096 22.8778C19.583 22.8316 19.5657 22.7807 19.5588 22.7279C19.5518 22.6751 19.5553 22.6214 19.5691 22.57C19.5829 22.5186 19.6067 22.4703 19.6392 22.4281C19.6716 22.3858 19.712 22.3504 19.7582 22.3238C19.8043 22.2972 19.8552 22.2799 19.908 22.2729C19.9608 22.266 20.0145 22.2695 20.0659 22.2833C20.1174 22.2971 20.1656 22.3209 20.2078 22.3534C20.2501 22.3858 20.2855 22.4262 20.3122 22.4724L20.4763 22.7561C20.5119 22.8177 20.5306 22.8876 20.5307 22.9587C20.5307 23.0299 20.512 23.0997 20.4765 23.1614C20.4409 23.223 20.3898 23.2742 20.3282 23.3098C20.2667 23.3454 20.1968 23.3642 20.1257 23.3642Z" fill="white"/>
<path d="M23.6198 19.8692C23.5486 19.8693 23.4786 19.8504 23.4171 19.8145L23.1334 19.6503C23.041 19.5962 22.9738 19.5077 22.9465 19.4042C22.9191 19.3007 22.9338 19.1906 22.9873 19.0979C23.0408 19.0052 23.1289 18.9374 23.2322 18.9093C23.3355 18.8813 23.4457 18.8952 23.5388 18.9482L23.8225 19.1127C23.8998 19.1574 23.9602 19.2263 23.9944 19.3087C24.0285 19.3911 24.0345 19.4826 24.0114 19.5688C23.9883 19.655 23.9374 19.7311 23.8666 19.7855C23.7958 19.8398 23.7091 19.8692 23.6198 19.8692Z" fill="white"/>
<path d="M23.6198 19.8692C23.5486 19.8693 23.4786 19.8504 23.4171 19.8145L23.1334 19.6503C23.041 19.5962 22.9738 19.5077 22.9465 19.4042C22.9191 19.3007 22.9338 19.1906 22.9873 19.0979C23.0408 19.0052 23.1289 18.9374 23.2322 18.9093C23.3355 18.8813 23.4457 18.8952 23.5388 18.9482L23.8225 19.1127C23.8998 19.1574 23.9602 19.2263 23.9944 19.3087C24.0285 19.3911 24.0345 19.4826 24.0114 19.5688C23.9883 19.655 23.9374 19.7311 23.8666 19.7855C23.7958 19.8398 23.7091 19.8692 23.6198 19.8692Z" fill="white"/>
<path d="M15.3508 16.4882C14.9951 16.4879 14.6474 16.3822 14.3518 16.1844C14.0561 15.9866 13.8258 15.7056 13.6898 15.3769C13.5538 15.0482 13.5184 14.6866 13.5879 14.3377C13.6575 13.9889 13.8289 13.6685 14.0805 13.417C14.3321 13.1656 14.6526 12.9944 15.0015 12.9251C15.3504 12.8558 15.712 12.8915 16.0406 13.0276C16.3693 13.1638 16.6501 13.3944 16.8477 13.6902C17.0453 13.9859 17.1508 14.3337 17.1508 14.6894C17.1504 15.1665 16.9605 15.624 16.623 15.9613C16.2855 16.2985 15.8279 16.4881 15.3508 16.4882ZM15.3508 13.7014C15.1554 13.7016 14.9645 13.7598 14.8022 13.8685C14.6399 13.9772 14.5135 14.1316 14.4389 14.3121C14.3643 14.4927 14.3449 14.6913 14.3832 14.8829C14.4214 15.0744 14.5156 15.2504 14.6538 15.3884C14.7921 15.5265 14.9681 15.6204 15.1597 15.6585C15.3513 15.6965 15.5499 15.6768 15.7304 15.602C15.9108 15.5272 16.0651 15.4006 16.1736 15.2381C16.2821 15.0757 16.34 14.8847 16.34 14.6894C16.3398 14.4272 16.2354 14.1759 16.0499 13.9906C15.8644 13.8053 15.613 13.7013 15.3508 13.7014Z" fill="white"/>
<path d="M14.844 13.7979C14.7583 13.798 14.6748 13.7708 14.6054 13.7204C14.5361 13.67 14.4845 13.5989 14.4581 13.5174L12.2977 6.83994C12.2781 6.78857 12.2691 6.73374 12.2713 6.6788C12.2736 6.62385 12.287 6.56994 12.3107 6.52033C12.3344 6.47072 12.368 6.42646 12.4094 6.39024C12.4507 6.35402 12.4991 6.32659 12.5514 6.30963C12.6037 6.29267 12.6589 6.28653 12.7137 6.29159C12.7684 6.29664 12.8216 6.31278 12.8699 6.33903C12.9182 6.36527 12.9607 6.40108 12.9947 6.44426C13.0288 6.48744 13.0537 6.5371 13.068 6.59021L15.2288 13.2672C15.2485 13.3281 15.2536 13.3928 15.2436 13.456C15.2336 13.5192 15.2087 13.5792 15.1711 13.631C15.1334 13.6827 15.084 13.7248 15.027 13.7539C14.9699 13.7829 14.9068 13.798 14.8428 13.7979H14.844Z" fill="white"/>
<path d="M18.0592 19.8948C17.9875 19.8949 17.917 19.876 17.855 19.8399C17.7929 19.8039 17.7416 19.752 17.7061 19.6896L15.6718 16.1095C15.6455 16.0632 15.6286 16.0122 15.622 15.9594C15.6154 15.9065 15.6193 15.8529 15.6334 15.8016C15.6476 15.7503 15.6717 15.7022 15.7044 15.6602C15.7371 15.6182 15.7778 15.583 15.824 15.5567C15.8703 15.5304 15.9214 15.5135 15.9742 15.5069C16.027 15.5003 16.0806 15.5042 16.132 15.5184C16.1833 15.5325 16.2313 15.5566 16.2733 15.5893C16.3154 15.622 16.3505 15.6627 16.3768 15.709L18.4115 19.2891C18.4466 19.3508 18.4648 19.4205 18.4645 19.4914C18.4641 19.5623 18.4451 19.6319 18.4095 19.6932C18.3738 19.7545 18.3227 19.8054 18.2613 19.8407C18.1998 19.8761 18.1302 19.8947 18.0592 19.8948Z" fill="white"/>
<path d="M15.7497 5.14086C15.7497 4.91696 15.5682 4.73546 15.3443 4.73546C15.1204 4.73546 14.9388 4.91696 14.9388 5.14086V5.46965C14.9388 5.69355 15.1204 5.87505 15.3443 5.87505C15.5682 5.87505 15.7497 5.69355 15.7497 5.46965V5.14086Z" fill="white"/>
<path d="M15.7627 23.9091C15.7627 23.6852 15.5812 23.5037 15.3573 23.5037C15.1334 23.5037 14.9519 23.6852 14.9519 23.9091V24.2383C14.9519 24.4622 15.1334 24.6437 15.3573 24.6437C15.5812 24.6437 15.7627 24.4622 15.7627 24.2383V23.9091Z" fill="white"/>
<path d="M24.5697 15.0887C24.4622 15.0887 24.3591 15.046 24.283 14.97C24.207 14.8939 24.1643 14.7908 24.1643 14.6833C24.1643 14.5758 24.207 14.4727 24.283 14.3966C24.3591 14.3206 24.4622 14.2779 24.5697 14.2779H24.8989C25.0064 14.2779 25.1095 14.3206 25.1856 14.3966C25.2616 14.4727 25.3043 14.5758 25.3043 14.6833C25.3043 14.7908 25.2616 14.8939 25.1856 14.97C25.1095 15.046 25.0064 15.0887 24.8989 15.0887H24.5697Z" fill="white"/>
<path d="M5.80226 15.1009C5.69474 15.1009 5.59162 15.0582 5.51559 14.9821C5.43956 14.9061 5.39685 14.803 5.39685 14.6955C5.39685 14.588 5.43956 14.4848 5.51559 14.4088C5.59162 14.3328 5.69474 14.2901 5.80226 14.2901H6.13145C6.23897 14.2901 6.34208 14.3328 6.41811 14.4088C6.49414 14.4848 6.53685 14.588 6.53685 14.6955C6.53685 14.803 6.49414 14.9061 6.41811 14.9821C6.34208 15.0582 6.23897 15.1009 6.13145 15.1009H5.80226Z" fill="white"/>
</g>
<defs>
<clipPath id="clip0_359_385">
<rect width="30" height="30" fill="white" transform="translate(0.204834 0.344116)"/>
</clipPath>
</defs>
</svg>
