<svg width="17" height="17" viewBox="0 0 17 17" fill="none" xmlns="http://www.w3.org/2000/svg">
<g clip-path="url(#clip0_1831_3029)">
<path d="M9.00361 9.35228L7.04815 11.2992C6.96847 11.3783 6.90522 11.4723 6.86205 11.5759C6.81889 11.6795 6.79667 11.7906 6.79667 11.9029C6.79667 12.0151 6.81889 12.1262 6.86205 12.2298C6.90522 12.3335 6.96847 12.4275 7.04815 12.5065C7.12719 12.5862 7.22122 12.6495 7.32483 12.6926C7.42843 12.7358 7.53956 12.758 7.6518 12.758C7.76403 12.758 7.87516 12.7358 7.97876 12.6926C8.08237 12.6495 8.1764 12.5862 8.25544 12.5065L11.6562 9.10572C11.7336 9.02487 11.7943 8.92952 11.8348 8.82516C11.9198 8.61817 11.9198 8.386 11.8348 8.179C11.7943 8.07464 11.7336 7.9793 11.6562 7.89844L8.25544 4.49764C8.17617 4.41837 8.08206 4.35549 7.97848 4.31259C7.87491 4.26968 7.7639 4.2476 7.6518 4.2476C7.53969 4.2476 7.42868 4.26968 7.32511 4.31259C7.22153 4.35549 7.12743 4.41837 7.04815 4.49764C6.96888 4.57691 6.906 4.67102 6.8631 4.77459C6.8202 4.87817 6.79812 4.98918 6.79812 5.10128C6.79812 5.21339 6.8202 5.3244 6.8631 5.42797C6.906 5.53154 6.96888 5.62565 7.04815 5.70492L9.00361 7.65188H0.8502C0.624713 7.65188 0.408461 7.74146 0.249018 7.9009C0.0895743 8.06034 0 8.27659 0 8.50208C0 8.72757 0.0895743 8.94382 0.249018 9.10326C0.408461 9.26271 0.624713 9.35228 0.8502 9.35228H9.00361ZM8.502 8.47595e-05C6.91305 -0.00700912 5.35391 0.431317 4.00144 1.26534C2.64896 2.09937 1.55727 3.29572 0.8502 4.71869C0.74873 4.92163 0.732034 5.15657 0.803784 5.37181C0.875533 5.58706 1.02985 5.76499 1.23279 5.86646C1.43573 5.96793 1.67066 5.98463 1.88591 5.91288C2.10116 5.84113 2.27909 5.68681 2.38056 5.48387C2.91805 4.39844 3.73563 3.47623 4.74883 2.81253C5.76203 2.14884 6.93408 1.76775 8.14385 1.70864C9.35363 1.64953 10.5572 1.91454 11.6303 2.4763C12.7034 3.03806 13.607 3.87617 14.2477 4.90403C14.8885 5.93189 15.2431 7.11221 15.275 8.32302C15.3069 9.53382 15.0149 10.7312 14.4292 11.7913C13.8434 12.8515 12.9852 13.736 11.9432 14.3535C10.9012 14.971 9.71321 15.299 8.502 15.3037C7.23425 15.3092 5.99064 14.9571 4.91389 14.2879C3.83715 13.6187 2.9709 12.6595 2.41457 11.5203C2.3131 11.3174 2.13517 11.163 1.91992 11.0913C1.70467 11.0195 1.46974 11.0362 1.2668 11.1377C1.06386 11.2392 0.909541 11.4171 0.837792 11.6323C0.766042 11.8476 0.782738 12.0825 0.884207 12.2855C1.55827 13.642 2.5825 14.7938 3.85095 15.6217C5.11941 16.4496 6.58603 16.9236 8.0991 16.9947C9.61218 17.0658 11.1168 16.7313 12.4572 16.0259C13.7977 15.3205 14.9254 14.2698 15.7236 12.9825C16.5219 11.6951 16.9617 10.2179 16.9976 8.70358C17.0335 7.18926 16.6642 5.69284 15.9278 4.36912C15.1915 3.04539 14.1149 1.94242 12.8093 1.1743C11.5038 0.406178 10.0167 0.000795911 8.502 8.47595e-05Z" fill="white"/>
</g>
<defs>
<clipPath id="clip0_1831_3029">
<rect width="17" height="17" fill="white"/>
</clipPath>
</defs>
</svg>
