<svg width="24" height="24" viewBox="0 0 24 24" fill="none" xmlns="http://www.w3.org/2000/svg">
<rect x="0.5" y="0.5" width="23" height="23" rx="11.5" fill="white"/>
<path d="M9.76668 18.0813C9.96196 18.2764 10.2784 18.2764 10.4737 18.0812L16.484 12.0708C16.6792 11.8756 16.6792 11.559 16.484 11.3637L10.4737 5.35343C10.2784 5.15821 9.96196 5.15816 9.76668 5.3533L9.35385 5.76584C9.15846 5.96109 9.15842 6.27779 9.35375 6.47309L14.2451 11.3637C14.4404 11.559 14.4404 11.8756 14.2451 12.0709L9.35375 16.9615C9.15842 17.1568 9.15846 17.4735 9.35385 17.6687L9.76668 18.0813Z" fill="#2E3A59"/>
<rect x="0.5" y="0.5" width="23" height="23" rx="11.5" stroke="#2E3A59"/>
</svg>
