<svg width="24" height="24" viewBox="0 0 24 24" fill="none" xmlns="http://www.w3.org/2000/svg">
<rect x="-0.5" y="0.5" width="23" height="23" rx="11.5" transform="matrix(-1 0 0 1 23 0)" fill="white"/>
<path d="M14.2333 18.0813C14.038 18.2764 13.7216 18.2764 13.5263 18.0812L7.51603 12.0708C7.32077 11.8756 7.32077 11.559 7.51603 11.3637L13.5263 5.35343C13.7216 5.15821 14.038 5.15816 14.2333 5.3533L14.6461 5.76584C14.8415 5.96109 14.8416 6.27779 14.6462 6.47309L9.75494 11.3637C9.55964 11.559 9.55964 11.8756 9.75494 12.0709L14.6462 16.9615C14.8416 17.1568 14.8415 17.4735 14.6461 17.6687L14.2333 18.0813Z" fill="#2E3A59"/>
<rect x="-0.5" y="0.5" width="23" height="23" rx="11.5" transform="matrix(-1 0 0 1 23 0)" stroke="#2E3A59"/>
</svg>
