<svg width="20" height="20" viewBox="0 0 20 20" fill="none" xmlns="http://www.w3.org/2000/svg">
<path d="M17.2929 2H14.5C14.2239 2 14 1.77614 14 1.5C14 1.22386 14.2239 1 14.5 1H18.5C18.7761 1 19 1.22386 19 1.5V5.5C19 5.77614 18.7761 6 18.5 6C18.2239 6 18 5.77614 18 5.5V2.70711L12.8536 7.85355C12.6583 8.04882 12.3417 8.04882 12.1464 7.85355C11.9512 7.65829 11.9512 7.34171 12.1464 7.14645L17.2929 2ZM18 9.5C18 9.22386 18.2239 9 18.5 9C18.7761 9 19 9.22386 19 9.5V16.5C19 17.8807 17.8807 19 16.5 19H3.5C2.11929 19 1 17.8807 1 16.5V3.5C1 2.11929 2.11929 1 3.5 1H10.5C10.7761 1 11 1.22386 11 1.5C11 1.77614 10.7761 2 10.5 2H3.5C2.67157 2 2 2.67157 2 3.5V16.5C2 17.3284 2.67157 18 3.5 18H16.5C17.3284 18 18 17.3284 18 16.5V9.5Z" fill="white" stroke="white" stroke-width="0.6"/>
</svg>
