<svg width="42" height="52" viewBox="0 0 42 52" fill="none" xmlns="http://www.w3.org/2000/svg">
<path d="M42 46H0C1.98705 40.0389 3.00004 33.7965 3 27.513V23C3 18.2261 4.89642 13.6477 8.27208 10.2721C11.6477 6.89642 16.2261 5 21 5V5C25.7739 5 30.3523 6.89642 33.7279 10.2721C37.1036 13.6477 39 18.2261 39 23V27.513C39 33.7965 40.013 40.0389 42 46V46Z" fill="#FDB62F"/>
<circle cx="20.5" cy="4.5" r="3.5" stroke="#FDB62F" stroke-width="2"/>
<path d="M39 27.5131V23.0001C39.0065 20.2947 38.4016 17.6228 37.2305 15.1839C36.0594 12.7451 34.3524 10.6024 32.2369 8.91597C30.1215 7.22949 27.6523 6.0428 25.0139 5.44454C22.3755 4.84629 19.636 4.85194 17 5.46107C20.9749 6.36703 24.5245 8.59552 27.0678 11.7818C29.6112 14.968 30.9975 18.9232 31 23.0001V27.5131C31 33.7966 32.013 40.039 34 46.0001H42C40.013 40.039 39 33.7966 39 27.5131V27.5131Z" fill="#FDAB26"/>
<path d="M11.911 13.715L10.511 12.285C11.1057 11.7056 11.7465 11.1756 12.427 10.7L13.573 12.339C12.9825 12.7516 12.4266 13.2118 11.911 13.715V13.715Z" fill="#FFCE80"/>
<path d="M8.03302 22.071L6.03302 21.929C6.24319 18.9385 7.35001 16.0809 9.20902 13.729L10.781 14.968C9.17164 17.0055 8.21397 19.4809 8.03302 22.071V22.071Z" fill="#FFCE80"/>
<path d="M16 46H26V47C26 48.3261 25.4732 49.5979 24.5355 50.5355C23.5979 51.4732 22.3261 52 21 52V52C19.6739 52 18.4021 51.4732 17.4645 50.5355C16.5268 49.5979 16 48.3261 16 47V46Z" fill="#FD9A30"/>
<path d="M1.85698 39C1.72298 39.669 1.57298 40.335 1.41498 41H40.585C40.427 40.335 40.277 39.669 40.143 39H1.85698Z" fill="#FD9A30"/>
<path d="M39.37 34H2.63C2.556 34.668 2.467 35.335 2.37 36H39.63C39.533 35.335 39.444 34.668 39.37 34Z" fill="#FD9A30"/>
</svg>
