<svg width="27" height="21" viewBox="0 0 27 21" fill="none" xmlns="http://www.w3.org/2000/svg">
<path d="M13.6849 0.107865C13.4719 0.0156816 13.2381 -0.0183144 13.0076 0.00934667C12.7771 0.0370077 12.5581 0.125335 12.3729 0.265314L6.10114 5.22495H1.31207C0.96409 5.22495 0.630359 5.36319 0.384297 5.60925C0.138236 5.85531 0 6.18904 0 6.53703V14.4095C0 14.7575 0.138236 15.0912 0.384297 15.3372C0.630359 15.5833 0.96409 15.7215 1.31207 15.7215H6.10114L12.3072 20.6812C12.5381 20.8664 12.8248 20.9681 13.1207 20.9698C13.3167 20.9731 13.5105 20.928 13.6849 20.8386C13.9082 20.7323 14.0969 20.565 14.2292 20.3561C14.3615 20.1471 14.4321 19.9051 14.4328 19.6578V1.28873C14.4321 1.04142 14.3615 0.799349 14.2292 0.590418C14.0969 0.381487 13.9082 0.214207 13.6849 0.107865V0.107865ZM11.8087 16.9286L7.37385 13.3861C7.14301 13.2008 6.85632 13.0991 6.56037 13.0974H2.62415V7.8491H6.56037C6.85632 7.84738 7.14301 7.74566 7.37385 7.56044L11.8087 4.01784V16.9286ZM23.1712 3.04691C22.9242 2.79984 22.5891 2.66104 22.2396 2.66104C21.8902 2.66104 21.5551 2.79984 21.3081 3.04691C21.061 3.29398 20.9222 3.62908 20.9222 3.97848C20.9222 4.32789 21.061 4.66299 21.3081 4.91005C22.0807 5.68147 22.6844 6.60517 23.0808 7.62244C23.4773 8.63972 23.6578 9.72834 23.6109 10.8191C23.564 11.9099 23.2908 12.979 22.8085 13.9585C22.3262 14.938 21.6455 15.8065 20.8095 16.5088C20.6065 16.6824 20.4613 16.9138 20.3933 17.1721C20.3253 17.4305 20.3378 17.7034 20.4291 17.9544C20.5204 18.2055 20.6861 18.4227 20.9041 18.577C21.1222 18.7313 21.3821 18.8154 21.6492 18.818C21.9558 18.8186 22.2529 18.7119 22.4889 18.5163C23.6054 17.5811 24.5151 16.4239 25.1601 15.1182C25.8052 13.8124 26.1714 12.3867 26.2356 10.9318C26.2997 9.47683 26.0604 8.02444 25.5329 6.66698C25.0053 5.30952 24.2011 4.0767 23.1712 3.04691V3.04691ZM19.4581 6.76008C19.3357 6.63774 19.1905 6.5407 19.0306 6.47449C18.8708 6.40829 18.6995 6.37421 18.5265 6.37421C18.3535 6.37421 18.1822 6.40829 18.0223 6.47449C17.8625 6.5407 17.7172 6.63774 17.5949 6.76008C17.4726 6.88241 17.3755 7.02765 17.3093 7.18749C17.2431 7.34733 17.209 7.51864 17.209 7.69165C17.209 7.86466 17.2431 8.03597 17.3093 8.19581C17.3755 8.35565 17.4726 8.50089 17.5949 8.62322C18.0877 9.11309 18.3661 9.7784 18.369 10.4732C18.3693 10.8555 18.2861 11.2332 18.1252 11.58C17.9643 11.9267 17.7296 12.2342 17.4375 12.4807C17.3046 12.5909 17.1948 12.7261 17.1143 12.8788C17.0338 13.0315 16.9842 13.1985 16.9683 13.3703C16.9525 13.5422 16.9707 13.7155 17.0219 13.8803C17.0732 14.0451 17.1564 14.1982 17.2669 14.3307C17.378 14.4626 17.5139 14.5714 17.6671 14.6507C17.8202 14.73 17.9874 14.7783 18.1593 14.793C18.3311 14.8076 18.5041 14.7882 18.6684 14.7359C18.8327 14.6836 18.9851 14.5994 19.1169 14.4882C19.7036 13.9963 20.1755 13.382 20.4996 12.6885C20.8237 11.9949 20.9922 11.2388 20.9932 10.4732C20.9858 9.08259 20.4348 7.74997 19.4581 6.76008V6.76008Z" fill="#C68311"/>
</svg>
